<?xml version="1.0" encoding="utf-8"?>
<!-- Generator: Adobe Illustrator 28.2.0, SVG Export Plug-In . SVG Version: 6.00 Build 0)  -->
<svg version="1.1" id="Layer_1" xmlns="http://www.w3.org/2000/svg" xmlns:xlink="http://www.w3.org/1999/xlink" x="0px" y="0px"
	 viewBox="0 0 888.1 204.4" style="enable-background:new 0 0 888.1 204.4;" xml:space="preserve">
<style type="text/css">
	.st0{fill:#261E1E;}
	.st1{fill:#26F9A8;stroke:#281E1E;stroke-width:4;stroke-miterlimit:10;}
	.st2{fill:#FFF87B;stroke:#281E1E;stroke-width:4;stroke-miterlimit:10;}
</style>
<g>
	<path class="st0" d="M39.4,152.2c1-8.5,3.5-12.2,5.7-28.4c0.7-3.9,2.7-18.4,4-31.9c0.9-9.5,1.7-29.4,2.4-36
		c1.4-13.4,6.1-15.9,18.2-20.2c3.4-1.2,19.3-7.1,22.6-8.4c22.7-9.9,36.6,4.6,39.2,42.2c1.8,26.9-5.3,38.2-13.2,46.5
		c-2,2.1-0.4,6,0.3,8.4c1.9,5.1,15.2,50.6,17.2,61c1.5,8.2-0.7,13.7-10.1,9.8c-15.1-6.4-16.8-27.5-18.2-35.1
		c-1.1-6.8-4.4-25.6-6.1-32.2c-0.7-2.6-1.2-5-3.3-6.1c-3.5-1.8-6.2-0.9-12.6-0.8c-10.7-0.1-19.8-8.5-15.2-15.8c2.4-4,7-3.4,9.2-2.6
		c4.8,1.6,10.9,2.1,14,1.8c11-1,14.1-9.6,13.8-18.7c-0.4-11.3-9.7-12-21.3-9.1c-13.4,3.6-20.4,15.5-21.2,23.9
		c-1.2,8.4-0.9,15.3-1.8,31.1c-0.6,9.5,0.4,21.2-0.1,30.1c-0.3,6.1-6.8,5.8-12.2,3.6C43.5,162.6,38.7,158.1,39.4,152.2L39.4,152.2z"
		/>
	<path class="st0" d="M41.1,151c0.9-8.5,3.4-12.1,5.5-28.2c0.7-3.9,2.6-18.4,3.9-31.9c0.9-9.4,1.6-29.4,2.3-36
		c1.4-13.5,6-16,17.9-20.4c3.4-1.2,19.1-7.1,22.3-8.4c22.4-9.8,36.2,4.5,38.8,41.8c1.8,26.7-5.2,37.9-13,46.1
		c-1.9,2-0.4,5.9,0.4,8.3c1.8,5.1,15,50,17,60.4c1.4,8.1-0.7,13.5-10,9.8c-14.9-6.2-16.6-27-17.9-34.6c-1.1-6.8-4.4-25.4-6-31.9
		c-0.7-2.6-1.2-4.9-3.3-6.1c-3.4-1.8-6.1-0.8-12.5-0.7c-10.5,0-19.6-8.2-15-15.5c2.4-4,6.9-3.5,9.1-2.7c4.8,1.5,10.7,2,13.8,1.6
		c10.8-1.1,13.9-9.6,13.6-18.6c-0.4-11.2-9.6-11.9-21-8.9c-13.4,3.6-20.3,15.6-21,24.1c-1.1,8.4-0.8,15.3-1.7,31.1
		c-0.6,9.5,0.5,21.1,0,30.1c-0.3,6.1-6.7,5.9-12,3.8C45.2,161.3,40.5,156.9,41.1,151L41.1,151z"/>
	<path class="st0" d="M42.8,149.9c0.9-8.4,3.3-12.1,5.4-28.2c0.6-3.9,2.5-18.3,3.7-31.9c0.9-9.4,1.5-29.4,2.1-36.1
		c1.3-13.6,5.9-16.2,17.6-20.6c3.4-1.2,18.9-7.1,22.1-8.4c22.2-9.8,35.8,4.4,38.4,41.4c1.8,26.5-5.1,37.5-12.8,45.7
		c-1.9,2-0.4,5.9,0.4,8.2c1.8,5.1,14.9,49.5,16.8,59.7c1.4,8-0.7,13.3-9.8,9.7c-14.7-5.9-16.4-26.6-17.7-34.1
		c-1.1-6.7-4.3-25.2-6-31.6c-0.7-2.6-1.2-4.9-3.2-6c-3.4-1.8-6-0.7-12.3-0.5c-10.4,0.2-19.3-7.8-14.8-15.3c2.3-4,6.8-3.6,8.9-2.8
		c4.7,1.5,10.6,1.8,13.6,1.5c10.7-1.1,13.7-9.6,13.4-18.5c-0.4-11.1-9.5-11.8-20.8-8.8C74.7,77,68,89.1,67.2,97.5
		c-1.1,8.4-0.8,15.2-1.6,31.1c-0.5,9.5,0.5,21.1,0.1,30.1c-0.3,6.1-6.6,6-11.8,4C46.9,160,42.2,155.6,42.8,149.9L42.8,149.9z"/>
	<path class="st0" d="M44.5,148.7c0.9-8.4,3.2-12,5.2-28.1c0.6-3.9,2.4-18.3,3.6-31.9c0.8-9.4,1.4-29.4,2-36.1
		c1.3-13.6,5.8-16.3,17.4-20.8c3.3-1.2,18.6-7.1,21.8-8.3c21.9-9.7,35.4,4.3,38,41c1.8,26.3-5,37.2-12.6,45.3
		c-1.9,2-0.4,5.8,0.4,8.2c1.8,5,14.7,49,16.6,59.1c1.4,7.9-0.6,13.1-9.7,9.7c-14.5-5.7-16.2-26.1-17.5-33.6c-1.1-6.6-4.3-25-6-31.3
		c-0.7-2.5-1.2-4.8-3.2-5.9c-3.3-1.7-6-0.7-12.1-0.4c-10.2,0.3-19.1-7.5-14.7-15c2.3-4.1,6.7-3.7,8.8-2.9c4.6,1.4,10.4,1.7,13.4,1.4
		c10.5-1.2,13.5-9.6,13.2-18.4c-0.4-11-9.4-11.7-20.5-8.6c-12.9,3.7-19.6,16-20.3,24.4c-1.1,8.4-0.8,15.2-1.6,31.1
		c-0.5,9.5,0.6,21.1,0.1,30.1c-0.3,6.2-6.5,6.2-11.6,4.2C48.5,158.8,43.9,154.4,44.5,148.7L44.5,148.7z"/>
	<path class="st0" d="M46.1,147.4c0.8-8.3,3.1-12,5.1-28.1c0.6-3.9,2.3-18.3,3.5-31.9C55.5,78,56,58,56.6,51.3
		c1.2-13.7,5.7-16.5,17.1-20.9c3.3-1.2,18.4-7.1,21.5-8.3c21.6-9.6,34.9,4.1,37.5,40.6c1.8,26.1-4.9,36.9-12.4,44.9
		c-1.8,2-0.4,5.8,0.4,8.1c1.8,5,14.6,48.5,16.5,58.5c1.4,7.9-0.6,13-9.5,9.6c-14.2-5.5-16-25.7-17.3-33.1c-1.1-6.6-4.3-24.7-5.9-31
		c-0.7-2.5-1.2-4.8-3.2-5.9c-3.3-1.7-5.9-0.6-12-0.3c-10.1,0.4-18.8-7.2-14.5-14.7c2.2-4.1,6.6-3.7,8.7-3c4.6,1.4,10.3,1.6,13.3,1.2
		c10.4-1.2,13.3-9.6,13-18.4c-0.4-10.9-9.3-11.6-20.3-8.5c-12.7,3.7-19.3,16.1-20,24.5c-1,8.4-0.7,15.2-1.5,31
		c-0.5,9.5,0.6,21,0.2,30c-0.3,6.2-6.4,6.3-11.4,4.4C50.1,157.4,45.5,153.1,46.1,147.4L46.1,147.4z"/>
	<path class="st0" d="M47.7,146.2c0.8-8.3,3.1-12,4.9-28.1c0.6-3.9,2.2-18.3,3.3-31.9c0.8-9.4,1.2-29.4,1.8-36.1
		c1.2-13.7,5.6-16.5,16.9-21c3.2-1.2,18.2-7,21.3-8.2c21.4-9.5,34.5,4,37.1,40.2c1.8,25.9-4.8,36.5-12.1,44.5c-1.8,2-0.4,5.7,0.4,8
		c1.8,4.9,14.4,48,16.3,57.9c1.4,7.8-0.6,12.8-9.4,9.5c-14-5.4-15.8-25.3-17.1-32.7c-1.1-6.5-4.3-24.5-5.9-30.8
		c-0.7-2.5-1.2-4.8-3.1-5.8c-3.3-1.7-5.8-0.6-11.8-0.2C80.3,112,71.7,104.6,76,97c2.2-4.1,6.5-3.8,8.6-3.1
		c4.5,1.3,10.2,1.5,13.1,1.1c10.3-1.3,13.1-9.6,12.8-18.2c-0.4-10.8-9.2-11.6-20-8.4c-12.6,3.8-19,16.2-19.7,24.6
		c-1,8.4-0.7,15.1-1.4,31c-0.4,9.5,0.6,21,0.3,30c-0.2,6.2-6.3,6.5-11.3,4.7C51.7,156.1,47.2,151.9,47.7,146.2L47.7,146.2z"/>
	<path class="st0" d="M49.3,144.9c0.8-8.3,3-12,4.8-28.1c0.6-3.9,2.2-18.4,3.2-31.9c0.7-9.4,1.1-29.4,1.7-36.1
		c1.1-13.7,5.4-16.6,16.6-21.1c3.2-1.3,18-7,21-8.2c21.1-9.4,34.1,3.8,36.7,39.7c1.8,25.7-4.7,36.2-11.9,44.1
		c-1.8,2-0.4,5.7,0.4,7.9c1.8,4.9,14.3,47.5,16.1,57.3c1.4,7.7-0.6,12.6-9.2,9.4c-13.9-5.2-15.6-25-16.9-32.2
		c-1.1-6.4-4.2-24.3-5.8-30.5c-0.7-2.5-1.2-4.7-3.1-5.7c-3.2-1.6-5.7-0.6-11.7-0.1c-9.8,0.6-18.4-6.7-14.2-14.3
		c2.2-4.1,6.4-3.9,8.5-3.2c4.5,1.3,10.1,1.4,12.9,1c10.1-1.3,12.9-9.5,12.6-18.1c-0.4-10.7-9.1-11.5-19.8-8.3
		c-12.4,3.8-18.8,16.3-19.4,24.6c-1,8.3-0.6,15.1-1.3,30.9c-0.4,9.5,0.7,21,0.3,30c-0.2,6.2-6.2,6.6-11.1,4.9
		C53.2,154.8,48.8,150.6,49.3,144.9L49.3,144.9z"/>
	<path class="st1" d="M50.9,143.7c0.7-8.3,2.9-12.1,4.6-28.1c0.5-3.9,2.1-18.4,3.1-31.9c0.7-9.4,1-29.4,1.6-36.1
		c1.1-13.7,5.3-16.7,16.4-21.1c3.2-1.3,17.8-6.9,20.8-8.1c20.9-9.4,33.8,3.7,36.3,39.3c1.8,25.5-4.6,36-11.7,43.8
		c-1.8,2-0.4,5.6,0.4,7.9c1.8,4.8,14.1,47,16,56.7c1.4,7.6-0.5,12.5-9.1,9.3c-13.7-5-15.4-24.6-16.7-31.8
		c-1.1-6.4-4.2-24.1-5.8-30.2c-0.7-2.5-1.2-4.7-3.1-5.7c-3.2-1.6-5.7-0.5-11.5,0c-9.7,0.7-18.1-6.4-14-14.1c2.1-4.1,6.3-3.9,8.3-3.3
		c4.4,1.2,9.9,1.3,12.8,0.9c10-1.4,12.8-9.5,12.4-18c-0.4-10.6-9-11.4-19.6-8.2C79.8,68.7,73.6,81.3,73,89.6
		c-0.9,8.3-0.6,15-1.2,30.8c-0.4,9.5,0.7,20.9,0.4,29.9c-0.2,6.2-6.1,6.8-10.9,5.1C54.8,153.4,50.4,149.3,50.9,143.7L50.9,143.7z"/>
</g>
<g>
	<path class="st0" d="M309.3,151c2.7-13,5.2-26.2,7.8-39.6c3.4-18.3,7.2-50.4,7.9-54.5c1.1-6.8,3.1-15.6,10.1-17.2
		c9.8-2.1,7.6,4.4,11.7,3.6c2.7-0.5,8-8.5,17.5-11c10.5-2.7,15.4,0.1,18.3,3.3c2.5,2.6,4.1,2.3,6.8-1.3c4.1-5.4,10.7-11.2,23.9-14.5
		c19.6-5.8,33.2,18,37.6,60.9c0.9,9.2,0.4,12.5,4,49.6c1.2,13,5.5,43.5,6.8,56.4c1.1,11.1-3.8,14.8-10.2,13
		c-8.4-2.3-12-8.2-12.9-20.7c-0.8-22.2-1.1-43.2-2.2-58c-2.5-32.9-10-47.7-22.9-46.3c-12.6,1.5-19.1,15.2-18.8,43.7
		c0.3,23.1,1,24.3,1.4,49.2c0.1,8.5-2,17.3-10.4,14.2c-8.9-2.5-12.1-7.5-11.8-18.5c1.1-16.9,2.4-31.9,2.6-44
		c0.4-27-6.1-39.1-19-37.5c-11.4,1.3-19.7,10.2-22,29.5c-2.1,18.2-1.2,29.5-3.3,47.8c-0.7,6-6.3,6.5-12.1,4.9
		C310.7,161.3,307.9,157.3,309.3,151L309.3,151z"/>
	<path class="st0" d="M311.4,149.7c2.7-12.9,5-26,7.6-39.4c3.3-18.2,6.9-50.4,7.6-54.4c1.1-6.8,3-15.7,10-17.3
		c9.6-2.2,7.5,4.3,11.6,3.5c2.7-0.5,7.8-8.5,17.2-11c10.4-2.7,15.2,0.1,18.1,3.2c2.5,2.6,4.1,2.2,6.7-1.3c4-5.3,10.6-11.1,23.6-14.4
		c19.4-5.8,32.8,17.7,37.2,60.2c0.9,9.1,0.4,12.4,3.9,49.1c1.2,12.9,5.5,43,6.7,55.7c1.1,11-3.7,14.6-10,12.9
		c-8.3-2.3-11.9-8.1-12.7-20.5c-0.8-21.9-1.1-42.7-2.2-57.4c-2.5-32.6-9.9-47.1-22.6-45.7c-12.5,1.5-18.8,15.1-18.5,43.4
		c0.3,22.9,1,24.1,1.4,48.9c0.1,8.4-2,17.2-10.3,14.3c-8.8-2.3-12-7.3-11.7-18.2c1.1-16.9,2.3-31.8,2.5-43.8
		c0.4-26.9-6.1-38.8-18.8-37.2c-11.2,1.4-19.5,10.4-21.7,29.7c-2,18.1-1.1,29.4-3.1,47.6c-0.6,6-6.1,6.5-11.9,4.9
		C312.8,159.9,310.1,155.9,311.4,149.7L311.4,149.7z"/>
	<path class="st0" d="M313.4,148.4c2.6-12.8,4.9-25.8,7.4-39.2c3.2-18.2,6.7-50.3,7.3-54.4c1-6.9,2.9-15.8,9.8-17.4
		c9.5-2.2,7.5,4.3,11.4,3.4c2.7-0.5,7.7-8.5,17-11c10.3-2.7,15,0,17.9,3.2c2.5,2.6,4,2.2,6.7-1.3c4-5.3,10.4-11,23.3-14.3
		c19.1-5.8,32.4,17.4,36.8,59.5c0.9,9,0.4,12.3,3.9,48.6c1.2,12.7,5.4,42.5,6.7,55.1c1.1,10.9-3.7,14.4-9.8,12.7
		c-8.2-2.2-11.7-7.9-12.5-20.2c-0.8-21.7-1.1-42.2-2.2-56.8c-2.5-32.2-9.8-46.6-22.4-45.2c-12.3,1.5-18.5,15-18.2,43
		c0.4,22.8,1.1,23.9,1.5,48.5c0.2,8.3-1.9,17.1-10.1,14.3c-8.7-2.2-11.8-7.1-11.6-18c1.1-16.8,2.2-31.7,2.4-43.7
		c0.3-26.7-6.1-38.6-18.6-36.8c-11.1,1.4-19.2,10.6-21.3,29.8c-1.9,18.1-1,29.3-2.9,47.5c-0.6,5.9-6,6.6-11.7,5
		C314.9,158.5,312.1,154.6,313.4,148.4L313.4,148.4z"/>
	<path class="st0" d="M315.4,147c2.5-12.7,4.7-25.7,7.2-39c3.1-18.1,6.4-50.2,7-54.3c1-6.9,2.8-15.8,9.6-17.5
		c9.4-2.3,7.4,4.2,11.3,3.3c2.7-0.5,7.6-8.5,16.8-11c10.1-2.7,14.9,0,17.7,3.1c2.4,2.5,4,2.2,6.6-1.3c3.9-5.3,10.3-10.8,23-14.1
		c19-5.8,32.1,17.2,36.5,58.8c0.9,8.9,0.4,12.2,3.9,48.2c1.2,12.6,5.4,42.1,6.6,54.6c1.1,10.8-3.6,14.2-9.7,12.6
		c-8.1-2.2-11.6-7.8-12.4-19.9c-0.8-21.4-1.2-41.8-2.3-56.2c-2.5-31.9-9.8-46.1-22.1-44.7c-12.2,1.6-18.3,14.9-17.9,42.7
		c0.4,22.6,1.1,23.7,1.5,48.1c0.2,8.3-1.9,17-9.9,14.4c-8.5-2.1-11.6-6.9-11.4-17.8c1-16.8,2.1-31.6,2.3-43.5
		C380,87,373.6,75.2,361.3,77c-11,1.5-18.9,10.7-21,29.9c-1.9,18.1-0.9,29.2-2.8,47.4c-0.6,5.9-5.9,6.6-11.5,5.1
		C316.9,157.1,314.2,153.2,315.4,147z"/>
	<path class="st0" d="M317.4,145.7c2.4-12.6,4.6-25.6,6.9-38.9c3-18.1,6.2-50.2,6.8-54.3c1-6.9,2.7-15.9,9.5-17.6
		c9.3-2.3,7.3,4.2,11.2,3.3c2.6-0.6,7.5-8.5,16.6-11c10-2.7,14.7,0,17.5,3.1c2.4,2.5,3.9,2.1,6.5-1.3c3.9-5.2,10.2-10.7,22.7-14
		c18.7-5.8,31.7,16.8,36,58.1c0.9,8.8,0.4,12,3.9,47.7c1.2,12.4,5.4,41.6,6.6,54c1.1,10.7-3.5,14.1-9.6,12.4
		c-7.9-2.1-11.4-7.7-12.2-19.7c-0.8-21.2-1.2-41.3-2.3-55.6c-2.5-31.6-9.7-45.6-21.9-44.2c-12,1.6-18,14.8-17.6,42.4
		c0.4,22.4,1.1,23.5,1.6,47.8c0.2,8.2-1.8,16.9-9.8,14.4c-8.4-1.9-11.5-6.7-11.3-17.5c1-16.7,2-31.4,2.2-43.3
		c0.2-26.4-6.1-38-18.3-36.1c-10.8,1.6-18.7,10.9-20.6,30c-1.8,18-0.8,29.1-2.6,47.3c-0.6,5.9-5.8,6.7-11.4,5.2
		C318.9,155.7,316.2,151.8,317.4,145.7L317.4,145.7z"/>
	<path class="st0" d="M319.4,144.4c2.4-12.6,4.4-25.5,6.7-38.8c2.9-18,6-50.1,6.6-54.2c0.9-6.9,2.7-15.9,9.3-17.6
		c9.2-2.3,7.2,4.1,11.1,3.2c2.6-0.6,7.4-8.5,16.4-10.9c9.9-2.7,14.5,0,17.3,3c2.4,2.5,3.9,2.1,6.4-1.2c3.8-5.2,10-10.6,22.4-13.9
		c18.5-5.8,31.3,16.6,35.6,57.4c0.9,8.7,0.4,11.9,3.9,47.2c1.2,12.3,5.3,41.2,6.5,53.4c1.1,10.5-3.5,13.9-9.4,12.3
		c-7.8-2.1-11.3-7.6-12.1-19.4c-0.8-21-1.2-40.9-2.3-55c-2.5-31.2-9.6-45.1-21.6-43.7c-11.9,1.6-17.8,14.7-17.4,42.1
		c0.4,22.2,1.1,23.3,1.6,47.4c0.2,8.2-1.8,16.8-9.6,14.4c-8.3-1.8-11.3-6.5-11.2-17.3c0.9-16.6,2-31.3,2.1-43.1
		c0.2-26.2-6.1-37.7-18.1-35.8c-10.7,1.6-18.4,11-20.3,30c-1.7,18-0.7,29-2.4,47.2c-0.5,5.9-5.7,6.7-11.2,5.3
		C320.8,154.3,318.2,150.5,319.4,144.4L319.4,144.4z"/>
	<path class="st0" d="M321.3,143c2.3-12.5,4.3-25.4,6.5-38.7c2.8-18,5.8-50,6.3-54.1c0.9-6.9,2.6-15.9,9.2-17.7
		c9.1-2.4,7.2,4.1,11,3.1c2.6-0.6,7.3-8.4,16.2-10.9c9.8-2.6,14.4,0,17.1,3c2.4,2.5,3.8,2.1,6.3-1.2c3.8-5.1,9.9-10.5,22.2-13.8
		c18.2-5.8,31,16.3,35.2,56.8c0.9,8.6,0.4,11.8,3.9,46.7c1.2,12.2,5.3,40.8,6.5,52.8c1,10.4-3.4,13.7-9.3,12.2
		c-7.7-2.1-11.1-7.4-11.9-19.2c-0.8-20.7-1.2-40.4-2.3-54.4c-2.5-30.9-9.5-44.6-21.4-43.2c-11.7,1.6-17.5,14.6-17.1,41.7
		c0.5,22,1.1,23.1,1.7,47c0.2,8.1-1.7,16.7-9.5,14.5c-8.2-1.7-11.2-6.3-11-17.1c0.9-16.6,1.9-31.2,2-42.8c0.1-26-6.1-37.4-17.9-35.4
		c-10.5,1.7-18.2,11.1-20,30.1c-1.7,17.9-0.7,28.9-2.3,47.1c-0.5,5.9-5.6,6.8-11,5.5C322.7,152.9,320.1,149.1,321.3,143L321.3,143z"
		/>
	<path class="st2" d="M323.1,141.7c2.2-12.5,4.2-25.3,6.3-38.6c2.7-17.9,5.5-49.9,6.1-54.1c0.9-6.9,2.5-15.9,9-17.7
		c9-2.4,7.1,4,10.8,3.1c2.5-0.6,7.2-8.4,15.9-10.8c9.7-2.6,14.2,0,16.9,3c2.3,2.4,3.8,2.1,6.3-1.2c3.7-5.1,9.8-10.4,21.9-13.7
		c18-5.8,30.6,16,34.8,56.1c0.9,8.5,0.4,11.7,3.8,46.3c1.2,12.1,5.2,40.3,6.4,52.3c1,10.3-3.4,13.6-9.1,12
		c-7.6-2-10.9-7.3-11.8-18.9c-0.8-20.5-1.2-40-2.3-53.8c-2.5-30.6-9.4-44.2-21.2-42.7c-11.6,1.6-17.3,14.5-16.8,41.4
		c0.5,21.9,1.2,23,1.7,46.6c0.2,8-1.7,16.6-9.3,14.5c-8.1-1.5-11-6.1-10.9-16.8c0.8-16.5,1.8-31,1.9-42.6c0.1-25.8-6-37.1-17.8-35.1
		c-10.4,1.7-17.9,11.2-19.7,30.1c-1.6,17.9-0.6,28.8-2.1,46.9c-0.5,5.9-5.5,6.8-10.8,5.6C324.6,151.5,322,147.7,323.1,141.7
		L323.1,141.7z"/>
</g>
<g>
	<path class="st0" d="M204.9,155.4c0.7-5.3,3.4-12.6,6-36c2.7-24.5,2.8-31.3,3.5-37.4c1.1-9.8,5.1-13.4,9.5-14.7
		c11.2-3.4,8.4,4.6,10.1,4.1c2.2-0.5,12.2-12,21.4-15.4c18.2-7,26.5,2.6,28.6,32.3c0.8,11.5,1.2,27.5,2.8,52.5
		c0.6,9.9,2.8,33.8,3.5,43.9c0.6,8.6-4,10.8-9.6,8.6c-6.9-2.7-13.6-8.9-13.8-17.6c0.1-16.1,1-31.9,0.6-43
		c-0.9-27.1-4.1-37-18.9-33.7c-15.6,3.7-19.4,19.8-20,30c-0.9,16.7-0.4,28.4-0.7,34.3c-0.3,6-1,9.6-11.7,5.5
		C207.6,165.7,204.2,161,204.9,155.4L204.9,155.4z"/>
	<path class="st0" d="M206.6,154.3c0.6-5.3,3.3-12.5,5.8-35.9c2.6-24.5,2.7-31.3,3.4-37.5c1.1-9.8,5-13.6,9.3-14.9
		c11-3.5,8.3,4.5,10,4c2.2-0.5,12-12,21.1-15.4c17.9-6.9,26.2,2.5,28.3,31.9c0.8,11.4,1.2,27.3,2.8,52.1c0.6,9.8,2.8,33.4,3.5,43.4
		c0.6,8.5-4,10.7-9.5,8.6c-6.8-2.6-13.4-8.6-13.6-17.3c0-16,0.9-31.6,0.5-42.7c-1-26.9-4.1-36.7-18.7-33.4
		c-15.4,3.8-19.1,20-19.7,30.2c-0.9,16.7-0.3,28.5-0.6,34.4c-0.3,6-1,9.7-11.5,5.7C209.2,164.5,205.9,159.8,206.6,154.3L206.6,154.3
		z"/>
	<path class="st0" d="M208.2,153.1c0.6-5.2,3.2-12.5,5.6-35.9c2.5-24.5,2.6-31.4,3.2-37.6c1-9.9,4.9-13.7,9.2-15.1
		c10.9-3.6,8.2,4.4,9.9,3.9c2.2-0.5,11.8-12,20.8-15.3c17.7-6.9,25.8,2.4,28,31.6c0.8,11.3,1.2,27.1,2.8,51.6
		c0.6,9.7,2.8,33.1,3.5,43c0.6,8.5-3.9,10.5-9.3,8.5c-6.7-2.5-13.2-8.3-13.5-17c0-15.9,0.8-31.4,0.5-42.3
		c-1-26.6-4.1-36.4-18.5-33.1c-15.2,3.8-18.8,20.1-19.3,30.3c-0.8,16.7-0.2,28.5-0.5,34.4c-0.3,6-0.9,9.8-11.3,6
		C210.9,163.2,207.5,158.6,208.2,153.1L208.2,153.1z"/>
	<path class="st0" d="M209.8,152c0.6-5.2,3.1-12.4,5.4-35.9c2.4-24.5,2.4-31.5,3-37.6c1-10,4.8-13.9,9-15.3
		c10.8-3.6,8.1,4.3,9.8,3.8c2.1-0.6,11.7-11.9,20.5-15.2C275,45,283,54,285.1,83.1c0.8,11.2,1.2,26.9,2.9,51.2
		c0.6,9.6,2.8,32.8,3.5,42.5c0.6,8.4-3.8,10.4-9.2,8.5c-6.6-2.4-13-8.1-13.3-16.7c0-15.8,0.8-31.2,0.4-42
		c-1-26.4-4.1-36.1-18.3-32.7c-15,3.9-18.5,20.3-19,30.5c-0.8,16.7-0.2,28.5-0.4,34.4c-0.3,6.1-0.9,9.8-11.1,6.2
		C212.4,162,209.1,157.4,209.8,152L209.8,152z"/>
	<path class="st0" d="M211.3,150.8c0.6-5.2,3-12.4,5.2-35.9c2.3-24.5,2.3-31.5,2.9-37.7c0.9-10,4.7-14,8.9-15.4
		c10.6-3.7,8,4.3,9.7,3.7c2.1-0.6,11.5-11.9,20.2-15.2c17.2-6.8,25.2,2.1,27.3,31c0.8,11.1,1.3,26.7,2.9,50.7
		c0.6,9.5,2.8,32.4,3.5,42.1c0.6,8.3-3.7,10.2-9,8.4c-6.5-2.3-12.9-7.9-13.1-16.4c0-15.6,0.7-31,0.3-41.7C269,98.2,266,88.6,252,92
		c-14.8,3.9-18.2,20.4-18.7,30.6c-0.7,16.7-0.1,28.4-0.3,34.4c-0.2,6.1-0.9,9.9-11,6.5C214,160.8,210.7,156.2,211.3,150.8
		L211.3,150.8z"/>
	<path class="st0" d="M212.8,149.6c0.5-5.2,2.9-12.4,5-35.9c2.2-24.6,2.2-31.5,2.7-37.8c0.9-10.1,4.6-14.1,8.7-15.6
		c10.5-3.7,7.9,4.2,9.6,3.6c2.1-0.6,11.3-11.8,19.9-15.1c17-6.8,24.9,2,27,30.7c0.8,11.1,1.3,26.5,2.9,50.3
		c0.6,9.4,2.8,32.1,3.5,41.6c0.6,8.2-3.7,10.1-8.9,8.3c-6.4-2.3-12.7-7.7-12.9-16.1c-0.1-15.5,0.7-30.7,0.2-41.4
		c-1.1-25.9-4.1-35.5-17.9-32.1c-14.6,4-17.9,20.5-18.4,30.6c-0.7,16.7,0,28.4-0.2,34.4c-0.2,6.1-0.8,9.9-10.8,6.7
		C215.5,159.5,212.3,155,212.8,149.6L212.8,149.6z"/>
	<path class="st0" d="M214.4,148.3c0.5-5.2,2.8-12.5,4.8-36c2.1-24.6,2.1-31.6,2.6-37.8c0.9-10.1,4.5-14.2,8.6-15.6
		c10.3-3.8,7.8,4.1,9.4,3.6c2.1-0.6,11.2-11.7,19.7-15c16.8-6.8,24.6,1.8,26.7,30.3c0.8,11,1.3,26.3,2.9,49.9
		c0.6,9.4,2.8,31.8,3.5,41.2c0.6,8.1-3.6,10-8.7,8.2c-6.3-2.2-12.5-7.5-12.8-15.9c-0.1-15.4,0.6-30.5,0.2-41
		c-1.1-25.7-4.1-35.2-17.8-31.8c-14.4,4-17.6,20.6-18.1,30.7c-0.6,16.7,0.1,28.4-0.1,34.4c-0.2,6.1-0.8,10-10.6,7
		C217,158.1,213.8,153.7,214.4,148.3L214.4,148.3z"/>
	<path class="st1" d="M215.8,147.1c0.5-5.2,2.7-12.5,4.6-36c2-24.6,2-31.6,2.5-37.8c0.8-10.1,4.4-14.2,8.4-15.7
		c10.2-3.8,7.7,4.1,9.3,3.5c2-0.7,11-11.7,19.4-14.9c16.6-6.7,24.3,1.7,26.4,30c0.8,10.9,1.3,26.1,2.9,49.5
		c0.6,9.3,2.8,31.5,3.5,40.8c0.6,8-3.5,9.8-8.6,8.1c-6.2-2.2-12.3-7.3-12.6-15.6c-0.1-15.3,0.6-30.2,0.1-40.7
		c-1.1-25.5-4.1-34.9-17.6-31.5c-14.2,4-17.4,20.6-17.7,30.7c-0.6,16.6,0.1,28.4-0.1,34.3c-0.2,6.1-0.8,10-10.4,7.2
		C218.5,156.8,215.3,152.4,215.8,147.1L215.8,147.1z"/>
</g>
<g>
	<path class="st0" d="M443.9,116.3c2.1-16.7,7.9-28.2,14.8-37.8c6.9-9.3,14.9-16.6,22.7-19.1c8.1-2.9,12.4-0.2,15.1,3.1
		c1.6,1.8,2.3,1.6,2.7-1.5c0.7-4.3,4.6-9.3,8.2-10.4c5.8-1.7,8.6,1.8,9.8,19.3c0.9,13.7,0.6,23.2,2.6,55c1.7,27.5,3.8,41,4.3,49.8
		c1,15.8-2.4,20.1-9.3,17.5c-6.1-2.3-11.6-8.8-12.8-15.2c-0.9-3.8-2.3-4.4-4.3-2.1c-4.8,5.8-15.2,5.3-22.6,2.4
		C454.5,169,439.7,147.7,443.9,116.3L443.9,116.3z M501.8,107.7c-0.6-15-3.4-34.4-20.5-28.9c-16.2,5.2-20,21.6-20.8,33.2
		c-1.1,14.1,8.9,22.9,21.3,23.2C498.3,135.8,502.3,120.6,501.8,107.7z"/>
	<path class="st0" d="M445.4,115.3c4.5-32,21.8-50.9,36.9-57.3c8-2.9,12.2-0.2,14.9,3c1.6,1.8,2.2,1.6,2.7-1.5
		c0.6-4.3,4.5-9.2,8.1-10.3c5.7-1.8,8.5,1.8,9.7,19.1c0.9,13.6,0.6,23,2.6,54.5c1.8,27.2,3.8,40.6,4.3,49.3
		c1,15.6-2.4,19.8-9.2,17.3c-6-2.3-11.4-8.6-12.6-14.9c-0.8-3.8-2.3-4.4-4.2-2c-4.7,5.9-15,5.6-22.3,2.9
		C456,167.6,441.3,146.5,445.4,115.3L445.4,115.3z M502.4,105.7c-0.6-14.9-3.4-34.1-20.3-28.6c-16,5.2-19.7,21.8-20.5,33.3
		c-1,14.1,8.8,22.6,21,22.8C499,133.6,502.9,118.6,502.4,105.7L502.4,105.7z"/>
	<path class="st0" d="M446.8,114.2c4.3-32.2,21.3-51.5,36.2-57.7c7.9-2.9,12.1-0.2,14.7,3c1.6,1.7,2.2,1.6,2.7-1.5
		c0.6-4.2,4.4-9.1,8-10.2c5.6-1.8,8.4,1.7,9.6,19c1,13.5,0.6,22.9,2.7,54.1c1.8,26.9,3.8,40.2,4.3,48.8c1,15.5-2.3,19.6-9,17.2
		c-5.9-2.2-11.3-8.4-12.4-14.6c-0.8-3.7-2.3-4.3-4.1-1.9c-4.6,5.9-14.8,5.9-21.9,3.4C457.4,166.2,442.9,145.3,446.8,114.2
		L446.8,114.2z M503,103.8c-0.6-14.8-3.4-33.8-20.1-28.3c-15.8,5.2-19.4,21.9-20.1,33.4c-0.9,14.1,8.7,22.4,20.8,22.4
		C499.7,131.5,503.6,116.6,503,103.8z"/>
	<path class="st0" d="M448.2,113.1c4.1-32.4,20.9-52,35.6-58.1c7.8-2.8,11.9-0.2,14.6,2.9c1.6,1.7,2.2,1.6,2.6-1.5
		c0.6-4.2,4.3-9,7.9-10.2c5.5-1.8,8.3,1.6,9.5,18.8c1,13.4,0.6,22.7,2.7,53.6c1.8,26.7,3.8,39.8,4.3,48.3c1.1,15.3-2.3,19.4-8.8,17
		c-5.9-2.1-11.1-8.2-12.3-14.4c-0.8-3.7-2.3-4.3-4.1-1.8c-4.6,5.9-14.5,6.2-21.6,3.9C458.8,164.8,444.5,144.1,448.2,113.1
		L448.2,113.1z M503.6,102c-0.6-14.6-3.5-33.5-19.8-28c-15.6,5.2-19.1,22-19.8,33.5c-0.9,14.1,8.7,22.2,20.5,22
		C500.4,129.3,504.2,114.6,503.6,102L503.6,102z"/>
	<path class="st0" d="M449.6,112c4-32.7,20.5-52.5,35-58.3c7.7-2.8,11.8-0.3,14.4,2.9c1.6,1.7,2.1,1.6,2.6-1.5
		c0.6-4.2,4.3-9,7.7-10.1c5.5-1.8,8.2,1.5,9.4,18.6c1,13.3,0.7,22.6,2.7,53.2c1.8,26.4,3.8,39.4,4.3,47.9
		c1.1,15.1-2.2,19.1-8.7,16.8c-5.8-2-11-8-12.1-14.1c-0.8-3.7-2.2-4.2-4-1.7c-4.5,6-14.3,6.4-21.3,4.3
		C460.2,163.3,446,143,449.6,112L449.6,112z M504.2,100.1c-0.6-14.5-3.5-33.2-19.6-27.8c-15.4,5.2-18.8,22-19.5,33.5
		c-0.8,14.1,8.6,21.9,20.3,21.6C501.1,127.2,504.8,112.6,504.2,100.1z"/>
	<path class="st0" d="M451,110.8c3.8-32.9,20.1-52.9,34.4-58.6c7.6-2.8,11.7-0.3,14.2,2.8c1.6,1.7,2.1,1.5,2.5-1.5
		c0.6-4.1,4.2-8.9,7.6-10.1c5.4-1.9,8.1,1.5,9.3,18.4c1,13.2,0.7,22.4,2.8,52.8c1.8,26.2,3.8,39,4.3,47.4c1.1,15-2.1,18.9-8.5,16.7
		c-5.7-2-10.8-7.8-11.9-13.9c-0.8-3.6-2.2-4.1-4-1.7c-4.4,6-14.1,6.6-20.9,4.7C461.6,161.8,447.5,141.7,451,110.8L451,110.8z
		 M504.8,98.2c-0.6-14.4-3.5-33-19.4-27.5c-15.2,5.2-18.5,22-19.1,33.5c-0.8,14.1,8.5,21.7,20.1,21.3
		C501.8,125.1,505.4,110.6,504.8,98.2z"/>
	<path class="st0" d="M452.3,109.5c3.6-33.1,19.7-53.2,33.8-58.8c7.5-2.8,11.5-0.3,14,2.8c1.5,1.7,2.1,1.5,2.5-1.5
		c0.6-4.1,4.1-8.8,7.5-10.1c5.3-1.9,8,1.4,9.2,18.2c1,13.1,0.7,22.3,2.8,52.4c1.8,26,3.7,38.7,4.3,46.9c1.1,14.8-2.1,18.7-8.4,16.5
		c-5.6-1.9-10.7-7.6-11.8-13.6c-0.8-3.6-2.2-4.1-3.9-1.6c-4.3,6-13.9,6.8-20.6,5.1C462.9,160.2,449,140.4,452.3,109.5L452.3,109.5z
		 M505.4,96.4c-0.7-14.3-3.5-32.7-19.2-27.2c-15,5.2-18.3,22-18.8,33.5c-0.8,14,8.5,21.5,19.8,20.9C502.4,123,506,108.7,505.4,96.4
		L505.4,96.4z"/>
	<path class="st2" d="M453.6,108.2c3.5-33.2,19.3-53.4,33.3-58.9c7.4-2.8,11.4-0.3,13.9,2.8c1.5,1.6,2.1,1.5,2.5-1.5
		c0.6-4,4.1-8.8,7.4-10c5.3-2,7.9,1.3,9.1,18c1,13.1,0.7,22.2,2.8,52c1.8,25.7,3.7,38.3,4.3,46.5c1.1,14.7-2,18.4-8.2,16.3
		c-5.5-1.9-10.5-7.5-11.6-13.4c-0.8-3.6-2.1-4-3.9-1.6c-4.3,6-13.6,7-20.3,5.4C464.2,158.6,450.4,139.1,453.6,108.2L453.6,108.2z
		 M506,94.5c-0.7-14.1-3.5-32.4-19-27c-14.8,5.2-18,22-18.5,33.5c-0.7,14,8.4,21.2,19.6,20.6C503.1,120.9,506.6,106.8,506,94.5
		L506,94.5z"/>
</g>
<g>
	<path class="st0" d="M516,153.5c0.5-5.3,3.1-12.5,5.2-35.7c2.3-24.2,2.2-31,2.8-37c0.9-9.7,5-12.2,9.7-12.9
		c11.8-2.1,8.9,5.1,10.7,4.9c2.3-0.2,12.8-11.6,22.5-15.3c19.2-7.2,27.8,5.3,29.6,35.2c0.6,11.6,0.8,27.8,2.2,53
		c0.5,10,2.5,34,3,44.1c0.5,8.7-4.2,10.4-9.8,7.8c-6.9-3.2-13.6-10-13.8-18.7c0.1-16.1,1.2-31.8,0.9-43.1
		c-0.8-27.4-4-37.8-19.3-35.2c-16.2,3-19.9,18.4-20.4,28.5c-0.8,16.5-0.1,28.3-0.3,34.2c-0.3,6-0.9,9.6-11.6,4.6
		C518.9,164,515.5,159,516,153.5L516,153.5z M537.7,56c0.5-8.4,6.1-17.8,16.2-22.4c5-2.2,9.4,1.7,14.8-0.6c4.3-1.8,6.3-5.1,8-7.6
		c5-7.7,9.5-1.9,9.7,2.5c0.6,10.5-7.3,20.7-16.1,23.7c-4.9,1.6-12.7-1-15.1,0c-4.8,2.1-6.1,7.8-11,9.3
		C539.5,62.3,537.5,59.1,537.7,56L537.7,56z"/>
	<path class="st0" d="M517.7,152.4c0.5-5.2,3-12.4,5.1-35.5c2.2-24.2,2.1-31,2.6-37c0.9-9.7,4.9-12.4,9.6-13.2
		c11.7-2.3,8.8,5,10.6,4.7c2.3-0.3,12.6-11.7,22.2-15.3c19-7.2,27.5,5.3,29.2,34.9c0.6,11.5,0.9,27.6,2.2,52.5
		c0.5,9.9,2.5,33.7,3,43.7c0.5,8.6-4.1,10.3-9.6,7.8c-6.8-3.1-13.4-9.7-13.6-18.4c0.1-16,1.1-31.6,0.8-42.8
		c-0.8-27.1-3.9-37.6-19.1-34.8c-16,3.1-19.6,18.7-20.1,28.8c-0.7,16.5,0,28.3-0.3,34.2c-0.2,6-0.9,9.6-11.4,4.8
		C520.5,162.8,517.1,157.9,517.7,152.4L517.7,152.4z M538.7,54.6c0.5-8.4,6-17.8,16-22.4c4.9-2.2,9.3,1.7,14.7-0.6
		c4.2-1.8,6.3-5.1,7.9-7.6c4.9-7.6,9.4-1.9,9.6,2.5c0.6,10.4-7.2,20.6-15.8,23.5c-4.8,1.6-12.5-0.9-14.9,0c-4.7,2.1-6,7.8-10.8,9.3
		C540.6,60.8,538.6,57.7,538.7,54.6L538.7,54.6z"/>
	<path class="st0" d="M519.3,151.2c0.5-5.2,2.9-12.3,4.9-35.4c2.1-24.2,2-31,2.5-37c0.9-9.7,4.8-12.6,9.4-13.5
		c11.5-2.6,8.7,4.7,10.5,4.4c2.3-0.4,12.4-11.8,21.9-15.4c18.7-7.1,27.2,5.3,28.9,34.6c0.6,11.4,0.9,27.3,2.2,52.1
		c0.5,9.8,2.5,33.3,3,43.2c0.5,8.5-4,10.1-9.5,7.7c-6.7-3-13.2-9.4-13.4-18.1c0.1-15.9,1.1-31.4,0.7-42.5
		c-0.8-26.9-3.9-37.3-18.9-34.5c-15.8,3.3-19.3,18.9-19.7,29c-0.7,16.5,0,28.3-0.2,34.2c-0.2,6-0.9,9.7-11.3,5.1
		C522.1,161.6,518.7,156.7,519.3,151.2L519.3,151.2z M539.8,53.1c0.5-8.4,5.9-17.8,15.7-22.4c4.8-2.2,9.2,1.7,14.5-0.6
		c4.2-1.8,6.2-5,7.8-7.5c4.8-7.5,9.2-1.9,9.5,2.4c0.6,10.3-7.1,20.4-15.6,23.4c-4.8,1.6-12.4-0.9-14.7,0c-4.7,2.1-5.9,7.8-10.7,9.3
		C541.7,59.4,539.7,56.3,539.8,53.1L539.8,53.1z"/>
	<path class="st0" d="M520.8,150.1c0.5-5.2,2.8-12.3,4.7-35.4c2-24.2,1.9-31,2.4-37.1c0.8-9.8,4.7-12.8,9.3-13.8
		c11.4-2.8,8.6,4.6,10.4,4.2c2.2-0.4,12.3-11.8,21.6-15.4c18.5-7,26.8,5.2,28.6,34.4c0.7,11.4,0.9,27.1,2.2,51.6
		c0.5,9.7,2.5,33,3,42.8c0.5,8.4-4,10-9.3,7.7c-6.6-2.9-13-9.1-13.2-17.7c0.1-15.8,1-31.2,0.7-42.2c-0.8-26.7-3.9-37-18.7-34.1
		c-15.6,3.4-19,19.2-19.4,29.3c-0.6,16.5,0.1,28.3-0.1,34.2c-0.2,6-0.8,9.8-11.1,5.4C523.7,160.4,520.3,155.5,520.8,150.1
		L520.8,150.1z M540.9,51.7c0.4-8.4,5.8-17.8,15.5-22.3c4.8-2.2,9.1,1.6,14.3-0.6c4.1-1.7,6.1-5,7.7-7.4c4.8-7.5,9.1-1.9,9.4,2.4
		c0.6,10.3-7,20.3-15.4,23.2c-4.7,1.6-12.3-0.9-14.5,0c-4.6,2.1-5.9,7.7-10.5,9.3C542.7,57.9,540.7,54.9,540.9,51.7z"/>
	<path class="st0" d="M522.4,148.9c0.5-5.2,2.8-12.3,4.6-35.4c1.9-24.2,1.8-31,2.3-37.1c0.8-9.8,4.7-12.9,9.1-14
		c11.2-3,8.5,4.5,10.3,4.1c2.2-0.4,12.1-11.9,21.3-15.4c18.3-7,26.5,5.2,28.3,34.1c0.7,11.3,0.9,26.9,2.2,51.1
		c0.5,9.6,2.5,32.7,3,42.3c0.5,8.3-3.9,9.9-9.2,7.6c-6.5-2.9-12.9-8.9-13.1-17.4c0.1-15.6,0.9-31,0.6-41.9
		c-0.9-26.5-3.9-36.7-18.5-33.8c-15.4,3.5-18.7,19.4-19.1,29.4c-0.6,16.5,0.1,28.3,0,34.2c-0.2,6-0.8,9.8-10.9,5.6
		C525.2,159.1,521.9,154.3,522.4,148.9L522.4,148.9z M541.9,50.3c0.4-8.4,5.7-17.8,15.3-22.3c4.7-2.2,9,1.6,14.2-0.6
		c4.1-1.7,6-4.9,7.6-7.4c4.7-7.4,9-2,9.3,2.4c0.6,10.2-6.9,20.2-15.2,23c-4.6,1.6-12.1-0.9-14.4,0.1c-4.5,2.1-5.8,7.7-10.4,9.3
		C543.7,56.4,541.8,53.4,541.9,50.3L541.9,50.3z"/>
	<path class="st0" d="M523.9,147.7c0.4-5.1,2.7-12.3,4.4-35.4c1.8-24.2,1.7-31,2.1-37.1c0.8-9.8,4.6-13.1,9-14.2
		c11.1-3.1,8.4,4.3,10.2,3.9c2.2-0.5,11.9-11.9,21-15.4c18-6.8,26.2,5.2,27.9,33.9c0.7,11.2,0.9,26.7,2.3,50.7
		c0.5,9.5,2.5,32.3,3,41.9c0.5,8.2-3.8,9.7-9.1,7.5c-6.4-2.8-12.7-8.6-12.9-17.2c0-15.5,0.9-30.8,0.5-41.6
		c-0.9-26.2-3.9-36.5-18.3-33.5c-15.2,3.6-18.4,19.5-18.8,29.6c-0.6,16.5,0.2,28.3,0,34.2c-0.2,6-0.8,9.9-10.7,5.9
		C526.7,157.9,523.4,153.1,523.9,147.7L523.9,147.7z M543,48.9c0.4-8.4,5.6-17.8,15.1-22.2c4.7-2.1,8.9,1.6,14-0.6
		c4-1.7,5.9-4.9,7.5-7.3c4.7-7.4,8.9-2,9.2,2.3c0.6,10.1-6.8,20-15,22.9c-4.6,1.5-12-0.9-14.2,0.1c-4.5,2.1-5.7,7.7-10.3,9.3
		C544.7,54.9,542.8,52,543,48.9L543,48.9z"/>
	<path class="st0" d="M525.4,146.5c0.4-5.1,2.6-12.3,4.3-35.4c1.7-24.2,1.6-31,2-37.1c0.7-9.8,4.5-13.2,8.8-14.4
		c11-3.3,8.3,4.2,10,3.7c2.2-0.5,11.8-11.9,20.8-15.3c17.8-6.8,25.9,5.1,27.6,33.6c0.7,11.1,0.9,26.4,2.3,50.2
		c0.5,9.4,2.5,32,3,41.5c0.5,8.1-3.8,9.6-8.9,7.4c-6.3-2.7-12.5-8.5-12.7-16.9c0-15.4,0.8-30.5,0.5-41.2c-0.9-26-3.9-36.2-18.1-33.2
		c-15,3.6-18.2,19.7-18.5,29.7c-0.5,16.5,0.3,28.3,0.1,34.2c-0.2,6.1-0.7,9.9-10.6,6.2C528.2,156.6,524.9,151.9,525.4,146.5
		L525.4,146.5z M544,47.4c0.4-8.4,5.5-17.7,14.9-22.1c4.6-2.1,8.8,1.6,13.8-0.6c4-1.7,5.9-4.9,7.4-7.3c4.6-7.4,8.8-2,9.1,2.3
		c0.6,10.1-6.7,19.9-14.8,22.7c-4.5,1.5-11.8-0.9-14,0.1c-4.4,2.1-5.6,7.6-10.1,9.3C545.8,53.4,543.8,50.5,544,47.4L544,47.4z"/>
	<path class="st2" d="M526.9,145.2c0.4-5.1,2.5-12.3,4.1-35.5c1.6-24.2,1.5-31,1.9-37.1c0.7-9.9,4.4-13.3,8.7-14.6
		c10.8-3.4,8.2,4.1,9.9,3.6c2.1-0.5,11.6-11.9,20.5-15.3c17.6-6.8,25.6,5.1,27.3,33.3c0.7,11,0.9,26.2,2.3,49.8
		c0.5,9.3,2.5,31.7,3,41c0.5,8-3.7,9.5-8.8,7.3c-6.2-2.7-12.3-8.3-12.6-16.6c0-15.3,0.8-30.3,0.4-40.9c-0.9-25.8-3.9-35.9-17.9-32.8
		c-14.8,3.7-17.9,19.8-18.2,29.8c-0.5,16.5,0.3,28.2,0.2,34.2c-0.2,6.1-0.7,9.9-10.4,6.5C529.6,155.3,526.4,150.6,526.9,145.2
		L526.9,145.2z M545,46c0.4-8.3,5.4-17.7,14.6-22c4.6-2.1,8.7,1.5,13.7-0.6c3.9-1.7,5.8-4.8,7.3-7.2c4.5-7.3,8.7-2.1,9,2.2
		c0.6,10-6.6,19.8-14.6,22.6c-4.5,1.5-11.7-0.9-13.9,0.1c-4.4,2-5.5,7.6-10,9.3C546.7,51.9,544.8,49.1,545,46L545,46z"/>
</g>
<g>
	<path class="st0" d="M648.5,143.3c0.6-5.5,3.8-18.4,12.6-17.3c9.4,0.7-1,17.3,19.7,18.9c8.9,0.4,12.8-3.6,12.7-12.2
		c-0.5-24-30.4-19.2-28.7-41.3c0.9-12,10.1-21.3,21.8-26.1c7.9-3.2,20.9-5,21.5,7.6c0.2,4.8-1.6,9.6-6.5,10.8
		c-5.3,1.4-7.8-3-12.7-1.4c-3.6,1.2-5.9,4.8-6,9.5c-0.1,8.1,8.8,8.5,18.4,15.4c9.6,6.5,19.8,19.6,21.3,44
		c2.1,30.7-12.9,48.1-36.6,37.5C662.8,178.5,646.4,160,648.5,143.3L648.5,143.3z"/>
	<path class="st0" d="M650,142.3c0.6-5.4,3.7-18.5,12.4-17.7c9.3,0.5-1,17.3,19.5,18.4c8.7,0.3,12.6-3.8,12.5-12.3
		c-0.5-24-30-18.7-28.4-40.7c0.9-12,10-21.4,21.5-26.1c7.8-3.2,20.6-4.9,21.3,7.5c0.2,4.7-1.6,9.5-6.4,10.7c-5.3,1.3-7.7-3-12.5-1.3
		c-3.6,1.2-5.8,4.7-5.9,9.4c-0.1,8.1,8.7,8.4,18.2,15.2c9.4,6.4,19.6,19.4,21.1,43.6c2.1,30.4-12.6,47.5-36,37.7
		C664.2,177.2,648,158.9,650,142.3L650,142.3z"/>
	<path class="st0" d="M651.5,141.3c0.6-5.4,3.6-18.6,12.2-18.1c9.1,0.2-0.9,17.2,19.2,18c8.6,0.1,12.4-4,12.3-12.4
		c-0.6-23.9-29.6-18.3-28.1-40.2c0.8-12.1,9.8-21.5,21.2-26.1c7.7-3.1,20.3-4.9,21,7.5c0.2,4.7-1.5,9.4-6.3,10.6
		c-5.2,1.3-7.6-2.9-12.3-1.3c-3.5,1.2-5.7,4.7-5.8,9.4c-0.1,8,8.6,8.3,18,15c9.3,6.3,19.3,19.2,20.9,43.2c2.1,30-12.4,47-35.4,37.9
		C665.6,175.8,649.6,157.7,651.5,141.3z"/>
	<path class="st0" d="M653,140.2c0.5-5.4,3.5-18.7,11.9-18.4c9,0-0.8,17.2,19,17.5c8.5,0,12.2-4.1,12.1-12.5
		c-0.6-23.8-29.3-17.9-27.8-39.7C669,75,677.8,65.6,689,61c7.6-3.1,20.1-4.9,20.8,7.4c0.2,4.7-1.5,9.4-6.2,10.5
		c-5.1,1.3-7.6-2.9-12.2-1.3c-3.5,1.2-5.6,4.7-5.7,9.3c0,8,8.6,8.2,17.8,14.9c9.2,6.3,19.1,19.1,20.6,42.8
		c2.1,29.7-12.1,46.4-34.8,38.1C666.9,174.4,651.1,156.5,653,140.2L653,140.2z"/>
	<path class="st0" d="M654.4,139.1c0.5-5.3,3.4-18.7,11.7-18.8c8.9-0.2-0.8,17.1,18.8,17.1c8.4-0.2,12-4.2,11.9-12.6
		c-0.6-23.7-28.9-17.5-27.5-39.2c0.7-12.1,9.4-21.5,20.5-26.1c7.5-3.1,19.8-4.9,20.5,7.3c0.2,4.6-1.5,9.3-6.1,10.4
		c-5,1.3-7.5-2.9-12-1.3c-3.4,1.2-5.6,4.7-5.6,9.3c0,7.9,8.5,8.1,17.6,14.7c9.1,6.2,18.9,18.9,20.4,42.5
		c2.1,29.4-11.9,45.8-34.2,38.2C668.2,172.9,652.6,155.3,654.4,139.1L654.4,139.1z"/>
	<path class="st0" d="M655.8,137.9c0.5-5.3,3.3-18.8,11.5-19.1c8.8-0.4-0.7,17.1,18.6,16.7c8.3-0.3,11.9-4.4,11.7-12.6
		c-0.7-23.6-28.6-17.1-27.3-38.7c0.7-12.1,9.3-21.5,20.2-26c7.4-3.1,19.6-4.9,20.3,7.2c0.2,4.6-1.4,9.2-6,10.4
		c-5,1.3-7.4-2.8-11.9-1.2c-3.4,1.2-5.5,4.7-5.5,9.2c0,7.9,8.4,8,17.4,14.5c9,6.2,18.6,18.8,20.2,42.1c2.1,29.1-11.6,45.2-33.7,38.2
		C669.5,171.4,654.1,154,655.8,137.9L655.8,137.9z"/>
	<path class="st0" d="M657.2,136.7c0.5-5.3,3.2-19,11.3-19.4c8.7-0.6-0.7,17,18.4,16.3c8.1-0.4,11.7-4.5,11.5-12.7
		c-0.7-23.5-28.2-16.8-27-38.3c0.7-12.1,9.1-21.5,19.9-26c7.3-3,19.3-4.9,20,7.1c0.2,4.6-1.4,9.2-5.9,10.3
		c-4.9,1.3-7.3-2.8-11.7-1.2c-3.3,1.2-5.4,4.6-5.4,9.2c0,7.8,8.3,7.9,17.2,14.4c8.9,6.1,18.4,18.7,20,41.8
		c2.1,28.9-11.4,44.6-33.1,38.2C670.8,169.8,655.5,152.8,657.2,136.7L657.2,136.7z"/>
	<path class="st2" d="M658.5,135.4c0.4-5.3,3.1-19.1,11.1-19.7c8.5-0.8-0.6,17,18.1,16c8-0.5,11.5-4.5,11.3-12.7
		c-0.7-23.3-27.9-16.5-26.7-37.8c0.6-12.1,8.9-21.4,19.6-25.9c7.2-3,19.1-4.9,19.8,7c0.2,4.5-1.4,9.1-5.9,10.2
		c-4.9,1.3-7.2-2.8-11.6-1.2c-3.3,1.2-5.3,4.6-5.3,9.1c0,7.7,8.2,7.8,17,14.3c8.8,6,18.2,18.5,19.7,41.4c2.1,28.6-11.2,44-32.6,38.2
		C672,168.2,656.9,151.5,658.5,135.4L658.5,135.4z"/>
</g>
<g>
	<path class="st0" d="M589.3,120.3c1.7-13.9,6.4-24.9,13.1-35.2c6.8-10.1,15.5-19.6,26.6-23.5c19.8-8.3,34.5,9.9,38.3,62.1
		c3.3,45.4-6.4,74.9-37.4,62.3C602.9,174.9,584.7,154.2,589.3,120.3L589.3,120.3z M649,109.2c-1-23.9-8.1-33.2-20.1-29.3
		c-12.6,4.1-19.9,16.6-21.1,34.2c-1.1,15.8,6.3,24.8,21.7,25.2C643.3,139.7,649.9,129.7,649,109.2L649,109.2z"/>
	<path class="st0" d="M590.8,119.3c1.6-13.8,6.2-25.1,12.8-35.6c6.6-10.2,15.3-19.7,26.2-23.6c19.6-8.3,34.1,9.7,37.9,61.5
		c3.4,45-6.2,74-36.8,62.3C604.3,173.5,586.4,153,590.8,119.3L590.8,119.3z M649.7,107.3c-1-23.7-8-32.9-19.9-29
		c-12.4,4.1-19.6,16.7-20.7,34.3c-1,15.8,6.3,24.6,21.4,24.8C644.1,137.5,650.5,127.7,649.7,107.3L649.7,107.3z"/>
	<path class="st0" d="M592.2,118.2c1.5-13.8,6.1-25.3,12.5-35.9c6.5-10.3,15-19.8,25.9-23.6c19.3-8.2,33.7,9.6,37.5,60.9
		c3.4,44.6-6.1,73-36.1,62.2C605.7,172,588,151.8,592.2,118.2L592.2,118.2z M650.3,105.4c-1-23.5-8-32.6-19.7-28.7
		c-12.3,4.1-19.3,16.7-20.4,34.3c-0.9,15.8,6.3,24.4,21.2,24.3C644.8,135.4,651.2,125.6,650.3,105.4L650.3,105.4z"/>
	<path class="st0" d="M593.6,117.1c3.3-26.2,16.7-50.8,37.8-59.9c19.1-8.1,33.3,9.4,37.1,60.3c3.4,44.2-5.9,72.1-35.5,62.1
		C607,170.5,589.6,150.6,593.6,117.1z M650.9,103.5c-1.1-23.3-7.9-32.3-19.5-28.4c-12.1,4.1-19,16.8-20,34.3
		c-0.9,15.8,6.2,24.2,21,24C645.5,133.2,651.8,123.5,650.9,103.5z"/>
	<path class="st0" d="M595,116c3.2-26.3,16.3-51.3,37.1-60.2c18.8-8.1,32.9,9.3,36.7,59.8c3.4,43.9-5.7,71.2-34.9,61.9
		C608.4,169,591.1,149.4,595,116L595,116z M651.5,101.6c-1.1-23.1-7.9-32-19.2-28.2c-11.9,4.1-18.7,16.8-19.7,34.3
		c-0.8,15.8,6.2,24,20.7,23.6C646.2,131.1,652.4,121.5,651.5,101.6z"/>
	<path class="st0" d="M596.4,114.8c3.1-26.4,16-51.7,36.5-60.4c18.6-8,32.5,9.1,36.3,59.2c3.4,43.5-5.5,70.3-34.3,61.7
		C609.7,167.4,592.6,148.2,596.4,114.8L596.4,114.8z M652,99.8c-1.1-22.9-7.8-31.7-19.1-27.9c-11.8,4.1-18.5,16.8-19.4,34.3
		c-0.8,15.8,6.2,23.8,20.5,23.2C646.9,129,653,119.5,652,99.8z"/>
	<path class="st0" d="M597.7,113.5c2.9-26.6,15.6-52.1,35.9-60.6c18.4-8,32.1,8.9,35.9,58.7c3.4,43.2-5.4,69.4-33.7,61.5
		C611,165.8,594.1,146.9,597.7,113.5L597.7,113.5z M652.6,98c-1.1-22.7-7.8-31.5-18.8-27.6c-11.6,4-18.2,16.7-19,34.2
		c-0.7,15.7,6.2,23.6,20.3,22.9C647.6,126.9,653.5,117.5,652.6,98L652.6,98z"/>
	<path class="st2" d="M599.1,112.3c2.8-26.7,15.3-52.4,35.3-60.7c18.1-7.9,31.7,8.8,35.5,58.1c3.4,42.9-5.2,68.5-33.2,61.3
		C612.3,164.2,595.6,145.6,599.1,112.3L599.1,112.3z M653.1,96.2c-1.1-22.4-7.7-31.2-18.7-27.4c-11.5,4-17.9,16.7-18.7,34.1
		c-0.7,15.7,6.1,23.4,20,22.6C648.3,124.9,654.1,115.5,653.1,96.2L653.1,96.2z"/>
</g>
<g>
	<path class="st0" d="M779.5,121.3c2.1-16.7,7.9-28.2,14.8-37.8c6.9-9.3,14.9-16.6,22.7-19.1c8.1-2.9,12.4-0.2,15.1,3.1
		c1.6,1.8,2.3,1.6,2.7-1.5c0.7-4.3,4.6-9.3,8.2-10.4c5.8-1.7,8.6,1.8,9.8,19.3c0.9,13.7,0.6,23.2,2.6,55c1.7,27.5,3.8,41,4.3,49.8
		c1,15.8-2.4,20.1-9.3,17.5c-6.1-2.3-11.6-8.8-12.8-15.2c-0.9-3.8-2.3-4.4-4.3-2.1c-4.8,5.8-15.2,5.3-22.6,2.4
		C790.1,174,775.2,152.7,779.5,121.3L779.5,121.3z M837.3,112.7c-0.6-15-3.4-34.4-20.5-28.9c-16.2,5.2-20,21.6-20.8,33.2
		c-1.1,14.1,8.9,22.9,21.3,23.2C833.8,140.8,837.8,125.6,837.3,112.7z"/>
	<path class="st0" d="M780.9,120.3c4.5-32,21.8-50.9,36.9-57.3c8-2.9,12.2-0.2,14.9,3c1.6,1.8,2.2,1.6,2.7-1.5
		c0.6-4.3,4.5-9.2,8.1-10.3c5.7-1.8,8.5,1.8,9.7,19.1c0.9,13.6,0.6,23,2.6,54.5c1.8,27.2,3.8,40.6,4.3,49.3
		c1,15.6-2.4,19.8-9.2,17.3c-6-2.3-11.4-8.6-12.6-14.9c-0.8-3.8-2.3-4.4-4.2-2c-4.7,5.9-15,5.6-22.3,2.9
		C791.5,172.6,776.8,151.5,780.9,120.3L780.9,120.3z M837.9,110.8c-0.6-14.9-3.4-34.1-20.3-28.6c-16,5.2-19.7,21.8-20.5,33.3
		c-1,14.1,8.8,22.6,21,22.8C834.5,138.6,838.5,123.6,837.9,110.8L837.9,110.8z"/>
	<path class="st0" d="M782.3,119.2c4.3-32.2,21.3-51.5,36.2-57.7c7.9-2.9,12.1-0.2,14.7,3c1.6,1.7,2.2,1.6,2.7-1.5
		c0.6-4.2,4.4-9.1,8-10.2c5.6-1.8,8.4,1.7,9.6,19c1,13.5,0.6,22.9,2.7,54.1c1.8,26.9,3.8,40.2,4.3,48.8c1,15.5-2.3,19.6-9,17.2
		c-5.9-2.2-11.3-8.4-12.4-14.6c-0.8-3.7-2.3-4.3-4.1-1.9c-4.6,5.9-14.8,5.9-21.9,3.4C793,171.2,778.4,150.4,782.3,119.2L782.3,119.2
		z M838.6,108.8C838,94,835.2,75,818.5,80.5c-15.8,5.2-19.4,21.9-20.1,33.4c-0.9,14.1,8.7,22.4,20.8,22.4
		C835.2,136.5,839.1,121.6,838.6,108.8L838.6,108.8z"/>
	<path class="st0" d="M783.8,118.1c4.1-32.4,20.9-52,35.6-58.1c7.8-2.8,11.9-0.2,14.6,2.9c1.6,1.7,2.2,1.6,2.6-1.5
		c0.6-4.2,4.3-9,7.9-10.2c5.5-1.8,8.3,1.6,9.5,18.8c1,13.4,0.6,22.7,2.7,53.6c1.8,26.7,3.8,39.8,4.3,48.3c1,15.3-2.3,19.4-8.8,17
		c-5.9-2.1-11.1-8.2-12.3-14.4c-0.8-3.7-2.3-4.3-4.1-1.8c-4.6,5.9-14.5,6.2-21.6,3.9C794.4,169.8,780,149.2,783.8,118.1L783.8,118.1
		z M839.2,107c-0.6-14.6-3.4-33.5-19.8-28c-15.6,5.2-19.1,22-19.8,33.5c-0.9,14.1,8.7,22.2,20.5,22
		C835.9,134.3,839.7,119.6,839.2,107L839.2,107z"/>
	<path class="st0" d="M785.1,117c4-32.7,20.5-52.5,35-58.3c7.7-2.8,11.8-0.3,14.4,2.9c1.6,1.7,2.1,1.6,2.6-1.5
		c0.6-4.2,4.3-9,7.7-10.1c5.5-1.8,8.2,1.5,9.4,18.6c1,13.3,0.7,22.6,2.7,53.2c1.8,26.4,3.8,39.4,4.3,47.9
		c1.1,15.1-2.2,19.1-8.7,16.8c-5.8-2-11-8-12.1-14.1c-0.8-3.7-2.2-4.2-4-1.7c-4.5,6-14.3,6.4-21.3,4.3
		C795.8,168.3,781.5,148,785.1,117L785.1,117z M839.8,105.1c-0.6-14.5-3.5-33.2-19.6-27.8c-15.4,5.2-18.8,22-19.5,33.5
		c-0.8,14.1,8.6,21.9,20.3,21.6C836.6,132.2,840.3,117.6,839.8,105.1L839.8,105.1z"/>
	<path class="st0" d="M786.5,115.8c3.8-32.9,20.1-52.9,34.4-58.6c7.6-2.8,11.7-0.3,14.2,2.8c1.6,1.7,2.1,1.5,2.5-1.5
		c0.6-4.1,4.2-8.9,7.6-10.1c5.4-1.9,8.1,1.5,9.3,18.4c1,13.2,0.7,22.4,2.8,52.8c1.8,26.2,3.7,39,4.3,47.4c1.1,15-2.1,18.9-8.5,16.7
		c-5.7-2-10.8-7.8-11.9-13.9c-0.8-3.6-2.2-4.1-4-1.7c-4.4,6-14.1,6.6-20.9,4.7C797.1,166.8,783.1,146.7,786.5,115.8L786.5,115.8z
		 M840.4,103.2c-0.6-14.4-3.5-33-19.4-27.5c-15.2,5.2-18.5,22-19.1,33.5c-0.8,14.1,8.5,21.7,20.1,21.3
		C837.3,130.1,840.9,115.7,840.4,103.2L840.4,103.2z"/>
	<path class="st0" d="M787.8,114.5c3.6-33.1,19.7-53.2,33.8-58.8c7.5-2.8,11.5-0.3,14,2.8c1.5,1.7,2.1,1.5,2.5-1.5
		c0.6-4.1,4.1-8.8,7.5-10.1c5.3-1.9,8,1.4,9.2,18.2c1,13.1,0.7,22.3,2.8,52.4c1.8,26,3.7,38.7,4.3,46.9c1.1,14.8-2.1,18.7-8.4,16.5
		c-5.6-1.9-10.7-7.6-11.8-13.6c-0.8-3.6-2.2-4.1-3.9-1.6c-4.3,6-13.9,6.8-20.6,5.1C798.4,165.2,784.5,145.5,787.8,114.5L787.8,114.5
		z M841,101.4c-0.7-14.3-3.5-32.7-19.2-27.2c-15,5.2-18.3,22-18.8,33.5c-0.8,14,8.5,21.5,19.8,20.9C838,128,841.5,113.7,841,101.4
		L841,101.4z"/>
	<path class="st2" d="M789.1,113.3c3.5-33.2,19.3-53.4,33.3-58.9c7.4-2.8,11.4-0.3,13.9,2.8c1.5,1.6,2.1,1.5,2.5-1.5
		c0.6-4,4.1-8.8,7.4-10c5.3-2,7.9,1.3,9.1,18c1,13.1,0.7,22.2,2.8,52c1.8,25.7,3.7,38.3,4.3,46.5c1.1,14.7-2,18.4-8.2,16.3
		c-5.5-1.9-10.5-7.5-11.6-13.4c-0.8-3.6-2.1-4-3.9-1.6c-4.3,6-13.6,7-20.3,5.4C799.7,163.7,786,144.2,789.1,113.3L789.1,113.3z
		 M841.5,99.6c-0.7-14.1-3.5-32.4-19-27c-14.8,5.2-18,22-18.5,33.5c-0.7,14,8.4,21.2,19.6,20.6C838.6,125.9,842.1,111.8,841.5,99.6
		L841.5,99.6z"/>
</g>
<g>
	<path class="st0" d="M719.8,120.3c4.4-34,19.9-49.7,36.9-57.3c19.6-8.8,28.2,9.1,29,20.2c0.6,9.4-0.8,17.3-8.5,17.5
		c-5.6,0.4-7.6-4.8-7.8-11.1c-0.1-3.5-3.4-9.9-12.9-6.7c-14.8,5.3-17.8,22.7-18.4,34.7c-0.6,10.2,3.2,22.6,18.1,23.1
		c20,0.7,18.5-14,26.6-13.2c4.5,0.7,6.7,7.9,7.9,29.4c2.2,33.5-15.6,38.7-36.1,29.5C731.1,175.8,715.5,156.4,719.8,120.3
		L719.8,120.3z"/>
	<path class="st0" d="M721.2,119.3c4.2-34.3,19.5-50.4,36.2-57.8c19.4-8.7,27.9,9,28.7,20c0.6,9.3-0.8,17.1-8.4,17.4
		c-5.5,0.4-7.5-4.7-7.7-11c-0.1-3.5-3.4-9.9-12.7-6.6c-14.7,5.3-17.5,22.8-18.1,34.8c-0.5,10.2,3.2,22.5,17.9,22.7
		c19.7,0.5,18.2-14.1,26.2-13.3c4.4,0.7,6.6,7.9,7.8,29.1c2.2,33.1-15.3,38.3-35.5,29.8C732.5,174.4,717,155.2,721.2,119.3
		L721.2,119.3z"/>
	<path class="st0" d="M722.6,118.2c4-34.5,19.1-51,35.6-58.3c19.1-8.6,27.6,8.8,28.3,19.8c0.6,9.2-0.8,17-8.3,17.2
		c-5.4,0.4-7.4-4.7-7.6-10.9c-0.1-3.4-3.3-9.8-12.6-6.5c-14.5,5.3-17.2,22.8-17.8,34.8c-0.5,10.2,3.2,22.3,17.7,22.4
		c19.4,0.2,17.9-14.1,25.8-13.4c4.4,0.7,6.5,7.8,7.8,28.8c2.2,32.7-15,37.9-34.9,30.1C733.8,173,718.6,154.1,722.6,118.2
		L722.6,118.2z"/>
	<path class="st0" d="M723.9,117.2c3.9-34.8,18.7-51.6,35-58.6c18.9-8.6,27.2,8.7,28,19.6c0.6,9.2-0.7,16.9-8.1,17.1
		c-5.3,0.4-7.3-4.7-7.5-10.8c-0.1-3.4-3.3-9.7-12.4-6.5c-14.3,5.3-17,22.8-17.5,34.8c-0.5,10.2,3.2,22.2,17.5,22
		c19.2,0,17.7-14.1,25.4-13.4c4.3,0.7,6.4,7.8,7.7,28.6c2.2,32.3-14.7,37.5-34.4,30.3C735.2,171.6,720.1,152.9,723.9,117.2
		L723.9,117.2z"/>
	<path class="st0" d="M725.3,116c3.7-35.1,18.4-52,34.4-58.9c18.6-8.5,26.9,8.5,27.7,19.4c0.6,9.1-0.7,16.8-8,17
		c-5.3,0.3-7.3-4.6-7.5-10.7c-0.1-3.4-3.3-9.6-12.3-6.4c-14.1,5.3-16.7,22.8-17.2,34.8c-0.4,10.2,3.2,22,17.3,21.7
		c18.9-0.2,17.4-14.1,25-13.4c4.2,0.7,6.3,7.7,7.6,28.3c2.2,31.9-14.5,37-33.8,30.5C736.5,170.1,721.6,151.7,725.3,116L725.3,116z"
		/>
	<path class="st0" d="M726.6,114.8c3.5-35.3,18-52.4,33.9-59.2c18.4-8.5,26.6,8.4,27.4,19.2c0.6,9.1-0.7,16.7-7.9,16.9
		c-5.2,0.3-7.2-4.6-7.4-10.6c-0.1-3.4-3.2-9.5-12.1-6.3c-13.9,5.3-16.5,22.8-16.9,34.8c-0.4,10.2,3.2,21.9,17.1,21.4
		c18.6-0.3,17.1-14.1,24.6-13.4c4.2,0.7,6.3,7.6,7.5,28.1c2.2,31.6-14.2,36.6-33.3,30.6C737.8,168.6,723,150.5,726.6,114.8
		L726.6,114.8z"/>
	<path class="st0" d="M727.8,113.6c3.4-35.5,17.6-52.8,33.3-59.4c18.1-8.4,26.3,8.2,27,19c0.6,9-0.6,16.6-7.8,16.8
		c-5.1,0.3-7.1-4.6-7.3-10.5c-0.1-3.3-3.2-9.5-12-6.3c-13.7,5.2-16.2,22.8-16.6,34.7c-0.4,10.2,3.3,21.7,17,21.1
		c18.4-0.5,16.9-14.1,24.3-13.4c4.1,0.7,6.2,7.6,7.5,27.8c2.2,31.3-13.9,36.1-32.7,30.7C739,167,724.5,149.3,727.8,113.6
		L727.8,113.6z"/>
	<path class="st2" d="M729.1,112.3c3.2-35.7,17.3-53,32.7-59.5c17.9-8.4,26,8,26.7,18.8c0.6,8.9-0.6,16.5-7.6,16.7
		c-5.1,0.3-7-4.5-7.2-10.4c-0.1-3.3-3.2-9.4-11.8-6.2c-13.5,5.2-15.9,22.7-16.3,34.6c-0.3,10.2,3.3,21.6,16.8,20.8
		c18.1-0.6,16.6-14,23.9-13.4c4.1,0.7,6.1,7.6,7.4,27.6c2.2,30.9-13.7,35.6-32.2,30.7C740.3,165.4,725.9,148,729.1,112.3
		L729.1,112.3z"/>
</g>
<g>
	<path class="st0" d="M128.5,118.3c1.7-13.9,6.4-24.9,13.1-35.2c6.8-10.1,15.5-19.6,26.6-23.5c19.8-8.3,34.5,9.9,38.3,62.1
		c3.3,45.4-6.4,74.9-37.4,62.3C142.1,172.9,123.9,152.2,128.5,118.3L128.5,118.3z M188.2,107.2c-1-23.9-8.1-33.2-20.1-29.3
		c-12.5,4.2-19.8,16.6-21,34.2c-1.1,15.8,6.3,24.8,21.7,25.2C182.5,137.7,189.1,127.8,188.2,107.2L188.2,107.2z"/>
	<path class="st0" d="M130,117.3c1.6-13.8,6.2-25.1,12.8-35.6c6.6-10.2,15.3-19.7,26.2-23.6c19.6-8.3,34.1,9.7,37.9,61.5
		c3.4,45-6.2,74-36.8,62.3C143.5,171.5,125.6,151,130,117.3L130,117.3z M188.9,105.3c-1-23.7-8-32.9-19.9-29
		c-12.4,4.1-19.6,16.7-20.7,34.3c-1,15.8,6.3,24.6,21.4,24.8C183.3,135.5,189.7,125.7,188.9,105.3L188.9,105.3z"/>
	<path class="st0" d="M131.4,116.2c1.5-13.8,6.1-25.3,12.5-35.9c6.5-10.3,15-19.8,25.9-23.6c19.3-8.2,33.7,9.6,37.5,60.9
		c3.4,44.6-6.1,73-36.1,62.2C144.9,170.1,127.2,149.9,131.4,116.2L131.4,116.2z M189.5,103.4c-1-23.5-8-32.6-19.7-28.7
		c-12.3,4.1-19.3,16.7-20.4,34.3c-0.9,15.8,6.3,24.4,21.2,24.3C184,133.4,190.3,123.6,189.5,103.4L189.5,103.4z"/>
	<path class="st0" d="M132.8,115.1c3.3-26.2,16.7-50.8,37.8-59.9c19.1-8.1,33.3,9.4,37.1,60.3c3.4,44.2-5.9,72.1-35.5,62.1
		C146.2,168.6,128.8,148.6,132.8,115.1z M190.1,101.5c-1.1-23.3-7.9-32.3-19.5-28.4c-12.1,4.1-19,16.8-20,34.3
		c-0.9,15.8,6.2,24.2,21,24C184.7,131.3,191,121.6,190.1,101.5z"/>
	<path class="st0" d="M134.2,114c3.2-26.3,16.3-51.3,37.1-60.2c18.8-8.1,32.9,9.3,36.7,59.8c3.4,43.9-5.7,71.2-34.9,61.9
		C147.6,167,130.3,147.4,134.2,114L134.2,114z M190.6,99.7c-1.1-23.1-7.9-32-19.2-28.2c-11.9,4.1-18.7,16.8-19.7,34.3
		c-0.8,15.8,6.2,24,20.7,23.6C185.4,129.2,191.6,119.5,190.6,99.7z"/>
	<path class="st0" d="M135.6,112.8c3.1-26.4,16-51.7,36.5-60.4c18.6-8,32.5,9.1,36.3,59.2c3.4,43.5-5.5,70.3-34.3,61.7
		C148.9,165.5,131.8,146.2,135.6,112.8L135.6,112.8z M191.2,97.8c-1.1-22.9-7.8-31.7-19.1-27.9c-11.8,4.1-18.5,16.8-19.4,34.3
		c-0.8,15.8,6.2,23.8,20.5,23.2C186.1,127.1,192.2,117.5,191.2,97.8L191.2,97.8z"/>
	<path class="st0" d="M136.9,111.6c2.9-26.6,15.6-52.1,35.9-60.6c18.4-8,32.1,8.9,35.9,58.7c3.4,43.2-5.4,69.4-33.7,61.5
		C150.2,163.9,133.3,144.9,136.9,111.6L136.9,111.6z M191.8,96c-1.1-22.7-7.8-31.5-18.8-27.6c-11.6,4-18.2,16.7-19,34.2
		c-0.7,15.7,6.2,23.6,20.3,22.9C186.8,125,192.7,115.5,191.8,96L191.8,96z"/>
	<path class="st1" d="M138.2,110.3c2.8-26.7,15.3-52.4,35.3-60.7c18.1-7.9,31.7,8.8,35.5,58.1c3.4,42.9-5.2,68.5-33.1,61.3
		C151.5,162.2,134.8,143.7,138.2,110.3L138.2,110.3z M192.3,94.2c-1.1-22.4-7.7-31.2-18.7-27.4c-11.5,4-17.9,16.7-18.7,34.1
		c-0.7,15.7,6.1,23.4,20,22.6C187.5,122.9,193.3,113.6,192.3,94.2L192.3,94.2z"/>
</g>
</svg>
