<?xml version="1.0" encoding="utf-8"?>
<!-- Generator: Adobe Illustrator 28.2.0, SVG Export Plug-In . SVG Version: 6.00 Build 0)  -->
<svg version="1.1" id="Layer_1" xmlns="http://www.w3.org/2000/svg" xmlns:xlink="http://www.w3.org/1999/xlink" x="0px" y="0px"
	 viewBox="0 0 888.1 204.4" style="enable-background:new 0 0 888.1 204.4;" xml:space="preserve">
<style type="text/css">
	.st0{fill:#261E1E;}
	.st1{fill:#26F9A8;stroke:#281E1E;stroke-width:4;stroke-miterlimit:10;}
	.st2{fill:#FFF87B;stroke:#281E1E;stroke-width:4;stroke-miterlimit:10;}
</style>
<g>
	<path class="st0" d="M47.2,151.1c1-8.5,3.5-12.2,5.7-28.4c0.7-3.9,2.7-18.4,4-31.9c0.9-9.5,1.7-29.4,2.4-36
		c1.4-13.4,6.1-15.9,18.2-20.2c3.4-1.2,19.3-7.1,22.6-8.4c22.7-9.9,36.6,4.6,39.2,42.2c1.8,26.9-5.3,38.2-13.2,46.5
		c-2,2.1-0.4,6,0.3,8.4c1.9,5.1,15.2,50.6,17.2,61c1.5,8.2-0.7,13.7-10.1,9.8c-15.1-6.4-16.8-27.5-18.2-35.1
		c-1.1-6.8-4.4-25.6-6.1-32.2c-0.7-2.6-1.2-5-3.3-6.1c-3.5-1.8-6.2-0.9-12.6-0.8c-10.7-0.1-19.8-8.5-15.2-15.8c2.4-4,7-3.4,9.2-2.6
		c4.8,1.6,10.9,2.1,14,1.8c11-1,14.1-9.6,13.8-18.7c-0.4-11.3-9.7-12-21.3-9.1C80.4,79.1,73.4,91,72.6,99.4
		c-1.2,8.4-0.9,15.3-1.8,31.1c-0.6,9.5,0.4,21.2-0.1,30.1c-0.3,6.1-6.8,5.8-12.2,3.6C51.3,161.5,46.5,157,47.2,151.1L47.2,151.1z"/>
	<path class="st0" d="M48.9,149.9c0.9-8.5,3.4-12.1,5.5-28.2c0.7-3.9,2.6-18.4,3.9-31.9c0.9-9.4,1.6-29.4,2.3-36
		c1.4-13.5,6-16,17.9-20.4c3.4-1.2,19.1-7.1,22.3-8.4c22.4-9.8,36.2,4.5,38.8,41.8c1.8,26.7-5.2,37.9-13,46.1
		c-1.9,2-0.4,5.9,0.4,8.3c1.8,5.1,15,50,17,60.4c1.4,8.1-0.7,13.5-10,9.8c-14.9-6.2-16.6-27-17.9-34.6c-1.1-6.8-4.4-25.4-6-31.9
		c-0.7-2.6-1.2-4.9-3.3-6.1c-3.4-1.8-6.1-0.8-12.5-0.7c-10.5,0-19.6-8.2-15-15.5c2.4-4,6.9-3.5,9.1-2.7c4.8,1.5,10.7,2,13.8,1.6
		c10.8-1.1,13.9-9.6,13.6-18.6c-0.4-11.2-9.6-11.9-21-8.9c-13.4,3.6-20.3,15.6-21,24.1c-1.1,8.4-0.8,15.3-1.7,31.1
		c-0.6,9.5,0.5,21.1,0,30.1c-0.3,6.1-6.7,5.9-12,3.8C53,160.2,48.3,155.8,48.9,149.9L48.9,149.9z"/>
	<path class="st0" d="M50.6,148.8c0.9-8.4,3.3-12.1,5.4-28.2c0.6-3.9,2.5-18.3,3.7-31.9c0.9-9.4,1.5-29.4,2.1-36.1
		C63.1,39,67.7,36.4,79.4,32c3.4-1.2,18.9-7.1,22.1-8.4c22.2-9.8,35.8,4.4,38.4,41.4c1.8,26.5-5.1,37.5-12.8,45.7
		c-1.9,2-0.4,5.9,0.4,8.2c1.8,5.1,14.9,49.5,16.8,59.7c1.4,8-0.7,13.3-9.8,9.7c-14.7-5.9-16.4-26.6-17.7-34.1
		c-1.1-6.7-4.3-25.2-6-31.6c-0.7-2.6-1.2-4.9-3.2-6c-3.4-1.8-6-0.7-12.3-0.5c-10.4,0.2-19.3-7.8-14.8-15.3c2.3-4,6.8-3.6,8.9-2.8
		c4.7,1.5,10.6,1.8,13.6,1.5c10.7-1.1,13.7-9.6,13.4-18.5c-0.4-11.1-9.5-11.8-20.8-8.8C82.5,75.9,75.8,88,75,96.4
		c-1.1,8.4-0.8,15.2-1.6,31.1c-0.5,9.5,0.5,21.1,0.1,30.1c-0.3,6.1-6.6,6-11.8,4C54.7,158.9,50,154.5,50.6,148.8L50.6,148.8z"/>
	<path class="st0" d="M52.3,147.6c0.9-8.4,3.2-12,5.2-28.1c0.6-3.9,2.4-18.3,3.6-31.9c0.8-9.4,1.4-29.4,2-36.1
		c1.3-13.6,5.8-16.3,17.4-20.8c3.3-1.2,18.6-7.1,21.8-8.3c21.9-9.7,35.4,4.3,38,41c1.8,26.3-5,37.2-12.6,45.3
		c-1.9,2-0.4,5.8,0.4,8.2c1.8,5,14.7,49,16.6,59.1c1.4,7.9-0.6,13.1-9.7,9.7c-14.5-5.7-16.2-26.1-17.5-33.6c-1.1-6.6-4.3-25-6-31.3
		c-0.7-2.5-1.2-4.8-3.2-5.9c-3.3-1.7-6-0.7-12.1-0.4c-10.2,0.3-19.1-7.5-14.7-15c2.3-4.1,6.7-3.7,8.8-2.9c4.6,1.4,10.4,1.7,13.4,1.4
		c10.5-1.2,13.5-9.6,13.2-18.4c-0.4-11-9.4-11.7-20.5-8.6c-12.9,3.7-19.6,16-20.3,24.4c-1.1,8.4-0.8,15.2-1.6,31.1
		c-0.5,9.5,0.6,21.1,0.1,30.1c-0.3,6.2-6.5,6.2-11.6,4.2C56.3,157.7,51.7,153.3,52.3,147.6L52.3,147.6z"/>
	<path class="st0" d="M53.9,146.3c0.8-8.3,3.1-12,5.1-28.1c0.6-3.9,2.3-18.3,3.5-31.9c0.8-9.4,1.3-29.4,1.9-36.1
		c1.2-13.7,5.7-16.5,17.1-20.9c3.3-1.2,18.4-7.1,21.5-8.3c21.6-9.6,34.9,4.1,37.5,40.6c1.8,26.1-4.9,36.9-12.4,44.9
		c-1.8,2-0.4,5.8,0.4,8.1c1.8,5,14.6,48.5,16.5,58.5c1.4,7.9-0.6,13-9.5,9.6c-14.2-5.5-16-25.7-17.3-33.1c-1.1-6.6-4.3-24.7-5.9-31
		c-0.7-2.5-1.2-4.8-3.2-5.9c-3.3-1.7-5.9-0.6-12-0.3c-10.1,0.4-18.8-7.2-14.5-14.7c2.2-4.1,6.6-3.7,8.7-3c4.6,1.4,10.3,1.6,13.3,1.2
		c10.4-1.2,13.3-9.6,13-18.4c-0.4-10.9-9.3-11.6-20.3-8.5c-12.7,3.7-19.3,16.1-20,24.5c-1,8.4-0.7,15.2-1.5,31
		c-0.5,9.5,0.6,21,0.2,30c-0.3,6.2-6.4,6.3-11.4,4.4C57.9,156.3,53.3,152,53.9,146.3L53.9,146.3z"/>
	<path class="st0" d="M55.5,145.1c0.8-8.3,3.1-12,4.9-28.1c0.6-3.9,2.2-18.3,3.3-31.9c0.8-9.4,1.2-29.4,1.8-36.1
		c1.2-13.7,5.6-16.5,16.9-21c3.2-1.2,18.2-7,21.3-8.2c21.4-9.5,34.5,4,37.1,40.2c1.8,25.9-4.8,36.5-12.1,44.5c-1.8,2-0.4,5.7,0.4,8
		c1.8,4.9,14.4,48,16.3,57.9c1.4,7.8-0.6,12.8-9.4,9.5c-14-5.4-15.8-25.3-17.1-32.7c-1.1-6.5-4.3-24.5-5.9-30.8
		c-0.7-2.5-1.2-4.8-3.1-5.8c-3.3-1.7-5.8-0.6-11.8-0.2c-10,0.5-18.6-6.9-14.3-14.5c2.2-4.1,6.5-3.8,8.6-3.1
		c4.5,1.3,10.2,1.5,13.1,1.1c10.3-1.3,13.1-9.6,12.8-18.2c-0.4-10.8-9.2-11.6-20-8.4c-12.6,3.8-19,16.2-19.7,24.6
		c-1,8.4-0.7,15.1-1.4,31c-0.4,9.5,0.6,21,0.3,30c-0.2,6.2-6.3,6.5-11.3,4.7C59.5,155,55,150.8,55.5,145.1L55.5,145.1z"/>
	<path class="st0" d="M57.1,143.8c0.8-8.3,3-12,4.8-28.1c0.6-3.9,2.2-18.4,3.2-31.9c0.7-9.4,1.1-29.4,1.7-36.1
		c1.1-13.7,5.4-16.6,16.6-21.1c3.2-1.3,18-7,21-8.2c21.1-9.4,34.1,3.8,36.7,39.7c1.8,25.7-4.7,36.2-11.9,44.1
		c-1.8,2-0.4,5.7,0.4,7.9c1.8,4.9,14.3,47.5,16.1,57.3c1.4,7.7-0.6,12.6-9.2,9.4c-13.9-5.2-15.6-25-16.9-32.2
		c-1.1-6.4-4.2-24.3-5.8-30.5c-0.7-2.5-1.2-4.7-3.1-5.7c-3.2-1.6-5.7-0.6-11.7-0.1c-9.8,0.6-18.4-6.7-14.2-14.3
		c2.2-4.1,6.4-3.9,8.5-3.2c4.5,1.3,10.1,1.4,12.9,1c10.1-1.3,12.9-9.5,12.6-18.1c-0.4-10.7-9.1-11.5-19.8-8.3
		C86.6,69.2,80.2,81.7,79.6,90c-1,8.3-0.6,15.1-1.3,30.9c-0.4,9.5,0.7,21,0.3,30c-0.2,6.2-6.2,6.6-11.1,4.9
		C61,153.7,56.6,149.5,57.1,143.8L57.1,143.8z"/>
	<path class="st1" d="M58.7,142.6c0.7-8.3,2.9-12.1,4.6-28.1c0.5-3.9,2.1-18.4,3.1-31.9c0.7-9.4,1-29.4,1.6-36.1
		c1.1-13.7,5.3-16.7,16.4-21.1c3.2-1.3,17.8-6.9,20.8-8.1c20.9-9.4,33.8,3.7,36.3,39.3c1.8,25.5-4.6,36-11.7,43.8
		c-1.8,2-0.4,5.6,0.4,7.9c1.8,4.8,14.1,47,16,56.7c1.4,7.6-0.5,12.5-9.1,9.3c-13.7-5-15.4-24.6-16.7-31.8
		c-1.1-6.4-4.2-24.1-5.8-30.2c-0.7-2.5-1.2-4.7-3.1-5.7c-3.2-1.6-5.7-0.5-11.5,0c-9.7,0.7-18.1-6.4-14-14.1c2.1-4.1,6.3-3.9,8.3-3.3
		c4.4,1.2,9.9,1.3,12.8,0.9c10-1.4,12.8-9.5,12.4-18c-0.4-10.6-9-11.4-19.6-8.2c-12.3,3.7-18.5,16.3-19.1,24.6
		c-0.9,8.3-0.6,15-1.2,30.8c-0.4,9.5,0.7,20.9,0.4,29.9c-0.2,6.2-6.1,6.8-10.9,5.1C62.6,152.3,58.2,148.2,58.7,142.6L58.7,142.6z"/>
</g>
<g>
	<path class="st0" d="M314.1,148.7c2.7-13,5.2-26.2,7.8-39.6c3.4-18.3,7.2-50.4,7.9-54.5c1.1-6.8,3.1-15.6,10.1-17.2
		c9.8-2.1,7.6,4.4,11.7,3.6c2.7-0.5,8-8.5,17.5-11c10.5-2.7,15.4,0.1,18.3,3.3c2.5,2.6,4.1,2.3,6.8-1.3c4.1-5.4,10.7-11.2,23.9-14.5
		c19.6-5.8,33.2,18,37.6,60.9c0.9,9.2,0.4,12.5,4,49.6c1.2,13,5.5,43.5,6.8,56.4c1.1,11.1-3.8,14.8-10.2,13
		c-8.4-2.3-12-8.2-12.9-20.7c-0.8-22.2-1.1-43.2-2.2-58c-2.5-32.9-10-47.7-22.9-46.3c-12.6,1.5-19.1,15.2-18.8,43.7
		c0.3,23.1,1,24.3,1.4,49.2c0.1,8.5-2,17.3-10.4,14.2c-8.9-2.5-12.1-7.5-11.8-18.5c1.1-16.9,2.4-31.9,2.6-44
		c0.4-27-6.1-39.1-19-37.5c-11.4,1.3-19.7,10.2-22,29.5c-2.1,18.2-1.2,29.5-3.3,47.8c-0.7,6-6.3,6.5-12.1,4.9
		C315.5,159,312.7,155,314.1,148.7L314.1,148.7z"/>
	<path class="st0" d="M316.2,147.4c2.7-12.9,5-26,7.6-39.4c3.3-18.2,6.9-50.4,7.6-54.4c1.1-6.8,3-15.7,10-17.3
		c9.6-2.2,7.5,4.3,11.6,3.5c2.7-0.5,7.8-8.5,17.2-11c10.4-2.7,15.2,0.1,18.1,3.2c2.5,2.6,4.1,2.2,6.7-1.3c4-5.3,10.6-11.1,23.6-14.4
		c19.4-5.8,32.8,17.7,37.2,60.2c0.9,9.1,0.4,12.4,3.9,49.1c1.2,12.9,5.5,43,6.7,55.7c1.1,11-3.7,14.6-10,12.9
		c-8.3-2.3-11.9-8.1-12.7-20.5c-0.8-21.9-1.1-42.7-2.2-57.4c-2.5-32.6-9.9-47.1-22.6-45.7c-12.5,1.5-18.8,15.1-18.5,43.4
		c0.3,22.9,1,24.1,1.4,48.9c0.1,8.4-2,17.2-10.3,14.3c-8.8-2.3-12-7.3-11.7-18.2c1.1-16.9,2.3-31.8,2.5-43.8
		c0.4-26.9-6.1-38.8-18.8-37.2c-11.2,1.4-19.5,10.4-21.7,29.7c-2,18.1-1.1,29.4-3.1,47.6c-0.6,6-6.1,6.5-11.9,4.9
		C317.6,157.6,314.9,153.6,316.2,147.4L316.2,147.4z"/>
	<path class="st0" d="M318.2,146.1c2.6-12.8,4.9-25.8,7.4-39.2c3.2-18.2,6.7-50.3,7.3-54.4c1-6.9,2.9-15.8,9.8-17.4
		c9.5-2.2,7.5,4.3,11.4,3.4c2.7-0.5,7.7-8.5,17-11c10.3-2.7,15,0,17.9,3.2c2.5,2.6,4,2.2,6.7-1.3c4-5.3,10.4-11,23.3-14.3
		c19.1-5.8,32.4,17.4,36.8,59.5c0.9,9,0.4,12.3,3.9,48.6c1.2,12.7,5.4,42.5,6.7,55.1c1.1,10.9-3.7,14.4-9.8,12.7
		c-8.2-2.2-11.7-7.9-12.5-20.2c-0.8-21.7-1.1-42.2-2.2-56.8c-2.5-32.2-9.8-46.6-22.4-45.2c-12.3,1.5-18.5,15-18.2,43
		c0.4,22.8,1.1,23.9,1.5,48.5c0.2,8.3-1.9,17.1-10.1,14.3c-8.7-2.2-11.8-7.1-11.6-18c1.1-16.8,2.2-31.7,2.4-43.7
		c0.3-26.7-6.1-38.6-18.6-36.8c-11.1,1.4-19.2,10.6-21.3,29.8c-1.9,18.1-1,29.3-2.9,47.5c-0.6,5.9-6,6.6-11.7,5
		C319.7,156.2,316.9,152.3,318.2,146.1L318.2,146.1z"/>
	<path class="st0" d="M320.2,144.7c2.5-12.7,4.7-25.7,7.2-39c3.1-18.1,6.4-50.2,7-54.3c1-6.9,2.8-15.8,9.6-17.5
		c9.4-2.3,7.4,4.2,11.3,3.3c2.7-0.5,7.6-8.5,16.8-11c10.1-2.7,14.9,0,17.7,3.1c2.4,2.5,4,2.2,6.6-1.3c3.9-5.3,10.3-10.8,23-14.1
		c19-5.8,32.1,17.2,36.5,58.8c0.9,8.9,0.4,12.2,3.9,48.2c1.2,12.6,5.4,42.1,6.6,54.6c1.1,10.8-3.6,14.2-9.7,12.6
		c-8.1-2.2-11.6-7.8-12.4-19.9c-0.8-21.4-1.2-41.8-2.3-56.2c-2.5-31.9-9.8-46.1-22.1-44.7c-12.2,1.6-18.3,14.9-17.9,42.7
		c0.4,22.6,1.1,23.7,1.5,48.1c0.2,8.3-1.9,17-9.9,14.4c-8.5-2.1-11.6-6.9-11.4-17.8c1-16.8,2.1-31.6,2.3-43.5
		c0.3-26.5-6.1-38.3-18.4-36.5c-11,1.5-18.9,10.7-21,29.9c-1.9,18.1-0.9,29.2-2.8,47.4c-0.6,5.9-5.9,6.6-11.5,5.1
		C321.7,154.8,319,150.9,320.2,144.7z"/>
	<path class="st0" d="M322.2,143.4c2.4-12.6,4.6-25.6,6.9-38.9c3-18.1,6.2-50.2,6.8-54.3c1-6.9,2.7-15.9,9.5-17.6
		c9.3-2.3,7.3,4.2,11.2,3.3c2.6-0.6,7.5-8.5,16.6-11c10-2.7,14.7,0,17.5,3.1c2.4,2.5,3.9,2.1,6.5-1.3c3.9-5.2,10.2-10.7,22.7-14
		c18.7-5.8,31.7,16.8,36,58.1c0.9,8.8,0.4,12,3.9,47.7c1.2,12.4,5.4,41.6,6.6,54c1.1,10.7-3.5,14.1-9.6,12.4
		c-7.9-2.1-11.4-7.7-12.2-19.7c-0.8-21.2-1.2-41.3-2.3-55.6c-2.5-31.6-9.7-45.6-21.9-44.2c-12,1.6-18,14.8-17.6,42.4
		c0.4,22.4,1.1,23.5,1.6,47.8c0.2,8.2-1.8,16.9-9.8,14.4c-8.4-1.9-11.5-6.7-11.3-17.5c1-16.7,2-31.4,2.2-43.3
		c0.2-26.4-6.1-38-18.3-36.1c-10.8,1.6-18.7,10.9-20.6,30c-1.8,18-0.8,29.1-2.6,47.3c-0.6,5.9-5.8,6.7-11.4,5.2
		C323.7,153.4,321,149.5,322.2,143.4L322.2,143.4z"/>
	<path class="st0" d="M324.2,142.1c2.4-12.6,4.4-25.5,6.7-38.8c2.9-18,6-50.1,6.6-54.2c0.9-6.9,2.7-15.9,9.3-17.6
		c9.2-2.3,7.2,4.1,11.1,3.2c2.6-0.6,7.4-8.5,16.4-10.9c9.9-2.7,14.5,0,17.3,3c2.4,2.5,3.9,2.1,6.4-1.2c3.8-5.2,10-10.6,22.4-13.9
		c18.5-5.8,31.3,16.6,35.6,57.4c0.9,8.7,0.4,11.9,3.9,47.2c1.2,12.3,5.3,41.2,6.5,53.4c1.1,10.5-3.5,13.9-9.4,12.3
		c-7.8-2.1-11.3-7.6-12.1-19.4c-0.8-21-1.2-40.9-2.3-55c-2.5-31.2-9.6-45.1-21.6-43.7c-11.9,1.6-17.8,14.7-17.4,42.1
		c0.4,22.2,1.1,23.3,1.6,47.4c0.2,8.2-1.8,16.8-9.6,14.4c-8.3-1.8-11.3-6.5-11.2-17.3c0.9-16.6,2-31.3,2.1-43.1
		c0.2-26.2-6.1-37.7-18.1-35.8c-10.7,1.6-18.4,11-20.3,30c-1.7,18-0.7,29-2.4,47.2c-0.5,5.9-5.7,6.7-11.2,5.3
		C325.6,152,323,148.2,324.2,142.1L324.2,142.1z"/>
	<path class="st0" d="M326.1,140.7c2.3-12.5,4.3-25.4,6.5-38.7c2.8-18,5.8-50,6.3-54.1c0.9-6.9,2.6-15.9,9.2-17.7
		c9.1-2.4,7.2,4.1,11,3.1c2.6-0.6,7.3-8.4,16.2-10.9c9.8-2.6,14.4,0,17.1,3c2.4,2.5,3.8,2.1,6.3-1.2c3.8-5.1,9.9-10.5,22.2-13.8
		c18.2-5.8,31,16.3,35.2,56.8c0.9,8.6,0.4,11.8,3.9,46.7c1.2,12.2,5.3,40.8,6.5,52.8c1,10.4-3.4,13.7-9.3,12.2
		c-7.7-2.1-11.1-7.4-11.9-19.2c-0.8-20.7-1.2-40.4-2.3-54.4c-2.5-30.9-9.5-44.6-21.4-43.2c-11.7,1.6-17.5,14.6-17.1,41.7
		c0.5,22,1.1,23.1,1.7,47c0.2,8.1-1.7,16.7-9.5,14.5c-8.2-1.7-11.2-6.3-11-17.1c0.9-16.6,1.9-31.2,2-42.8c0.1-26-6.1-37.4-17.9-35.4
		c-10.5,1.7-18.2,11.1-20,30.1c-1.7,17.9-0.7,28.9-2.3,47.1c-0.5,5.9-5.6,6.8-11,5.5C327.5,150.6,324.9,146.8,326.1,140.7
		L326.1,140.7z"/>
	<path class="st2" d="M327.9,139.4c2.2-12.5,4.2-25.3,6.3-38.6c2.7-17.9,5.5-49.9,6.1-54.1c0.9-6.9,2.5-15.9,9-17.7
		c9-2.4,7.1,4,10.8,3.1c2.5-0.6,7.2-8.4,15.9-10.8c9.7-2.6,14.2,0,16.9,3c2.3,2.4,3.8,2.1,6.3-1.2c3.7-5.1,9.8-10.4,21.9-13.7
		c18-5.8,30.6,16,34.8,56.1c0.9,8.5,0.4,11.7,3.8,46.3c1.2,12.1,5.2,40.3,6.4,52.3c1,10.3-3.4,13.6-9.1,12
		c-7.6-2-10.9-7.3-11.8-18.9c-0.8-20.5-1.2-40-2.3-53.8c-2.5-30.6-9.4-44.2-21.2-42.7c-11.6,1.6-17.3,14.5-16.8,41.4
		c0.5,21.9,1.2,23,1.7,46.6c0.2,8-1.7,16.6-9.3,14.5c-8.1-1.5-11-6.1-10.9-16.8c0.8-16.5,1.8-31,1.9-42.6c0.1-25.8-6-37.1-17.8-35.1
		c-10.4,1.7-17.9,11.2-19.7,30.1c-1.6,17.9-0.6,28.8-2.1,46.9c-0.5,5.9-5.5,6.8-10.8,5.6C329.4,149.2,326.8,145.4,327.9,139.4
		L327.9,139.4z"/>
</g>
<g>
	<path class="st0" d="M212.7,154.3c0.7-5.3,3.4-12.6,6-36c2.7-24.5,2.8-31.3,3.5-37.4c1.1-9.8,5.1-13.4,9.5-14.7
		c11.2-3.4,8.4,4.6,10.1,4.1c2.2-0.5,12.2-12,21.4-15.4c18.2-7,26.5,2.6,28.6,32.3c0.8,11.5,1.2,27.5,2.8,52.5
		c0.6,9.9,2.8,33.8,3.5,43.9c0.6,8.6-4,10.8-9.6,8.6c-6.9-2.7-13.6-8.9-13.8-17.6c0.1-16.1,1-31.9,0.6-43
		c-0.9-27.1-4.1-37-18.9-33.7c-15.6,3.7-19.4,19.8-20,30c-0.9,16.7-0.4,28.4-0.7,34.3c-0.3,6-1,9.6-11.7,5.5
		C215.4,164.6,212,159.9,212.7,154.3L212.7,154.3z"/>
	<path class="st0" d="M214.4,153.2c0.6-5.3,3.3-12.5,5.8-35.9c2.6-24.5,2.7-31.3,3.4-37.5c1.1-9.8,5-13.6,9.3-14.9
		c11-3.5,8.3,4.5,10,4c2.2-0.5,12-12,21.1-15.4c17.9-6.9,26.2,2.5,28.3,31.9c0.8,11.4,1.2,27.3,2.8,52.1c0.6,9.8,2.8,33.4,3.5,43.4
		c0.6,8.5-4,10.7-9.5,8.6c-6.8-2.6-13.4-8.6-13.6-17.3c0-16,0.9-31.6,0.5-42.7c-1-26.9-4.1-36.7-18.7-33.4
		c-15.4,3.8-19.1,20-19.7,30.2c-0.9,16.7-0.3,28.5-0.6,34.4c-0.3,6-1,9.7-11.5,5.7C217,163.4,213.7,158.7,214.4,153.2L214.4,153.2z"
		/>
	<path class="st0" d="M216,152c0.6-5.2,3.2-12.5,5.6-35.9c2.5-24.5,2.6-31.4,3.2-37.6c1-9.9,4.9-13.7,9.2-15.1
		c10.9-3.6,8.2,4.4,9.9,3.9c2.2-0.5,11.8-12,20.8-15.3c17.7-6.9,25.8,2.4,28,31.6c0.8,11.3,1.2,27.1,2.8,51.6
		c0.6,9.7,2.8,33.1,3.5,43c0.6,8.5-3.9,10.5-9.3,8.5c-6.7-2.5-13.2-8.3-13.5-17c0-15.9,0.8-31.4,0.5-42.3
		c-1-26.6-4.1-36.4-18.5-33.1c-15.2,3.8-18.8,20.1-19.3,30.3c-0.8,16.7-0.2,28.5-0.5,34.4c-0.3,6-0.9,9.8-11.3,6
		C218.7,162.1,215.3,157.5,216,152L216,152z"/>
	<path class="st0" d="M217.6,150.9c0.6-5.2,3.1-12.4,5.4-35.9c2.4-24.5,2.4-31.5,3-37.6c1-10,4.8-13.9,9-15.3
		c10.8-3.6,8.1,4.3,9.8,3.8c2.1-0.6,11.7-11.9,20.5-15.2c17.5-6.8,25.5,2.2,27.6,31.3c0.8,11.2,1.2,26.9,2.9,51.2
		c0.6,9.6,2.8,32.8,3.5,42.5c0.6,8.4-3.8,10.4-9.2,8.5c-6.6-2.4-13-8.1-13.3-16.7c0-15.8,0.8-31.2,0.4-42
		c-1-26.4-4.1-36.1-18.3-32.7c-15,3.9-18.5,20.3-19,30.5c-0.8,16.7-0.2,28.5-0.4,34.4c-0.3,6.1-0.9,9.8-11.1,6.2
		C220.2,160.9,216.9,156.3,217.6,150.9L217.6,150.9z"/>
	<path class="st0" d="M219.1,149.7c0.6-5.2,3-12.4,5.2-35.9c2.3-24.5,2.3-31.5,2.9-37.7c0.9-10,4.7-14,8.9-15.4
		c10.6-3.7,8,4.3,9.7,3.7c2.1-0.6,11.5-11.9,20.2-15.2c17.2-6.8,25.2,2.1,27.3,31c0.8,11.1,1.3,26.7,2.9,50.7
		c0.6,9.5,2.8,32.4,3.5,42.1c0.6,8.3-3.7,10.2-9,8.4c-6.5-2.3-12.9-7.9-13.1-16.4c0-15.6,0.7-31,0.3-41.7
		c-1.1-26.2-4.1-35.8-18.1-32.4c-14.8,3.9-18.2,20.4-18.7,30.6c-0.7,16.7-0.1,28.4-0.3,34.4c-0.2,6.1-0.9,9.9-11,6.5
		C221.8,159.7,218.5,155.1,219.1,149.7L219.1,149.7z"/>
	<path class="st0" d="M220.6,148.5c0.5-5.2,2.9-12.4,5-35.9c2.2-24.6,2.2-31.5,2.7-37.8c0.9-10.1,4.6-14.1,8.7-15.6
		c10.5-3.7,7.9,4.2,9.6,3.6c2.1-0.6,11.3-11.8,19.9-15.1c17-6.8,24.9,2,27,30.7c0.8,11.1,1.3,26.5,2.9,50.3
		c0.6,9.4,2.8,32.1,3.5,41.6c0.6,8.2-3.7,10.1-8.9,8.3c-6.4-2.3-12.7-7.7-12.9-16.1c-0.1-15.5,0.7-30.7,0.2-41.4
		c-1.1-25.9-4.1-35.5-17.9-32.1c-14.6,4-17.9,20.5-18.4,30.6c-0.7,16.7,0,28.4-0.2,34.4c-0.2,6.1-0.8,9.9-10.8,6.7
		C223.3,158.4,220.1,153.9,220.6,148.5L220.6,148.5z"/>
	<path class="st0" d="M222.2,147.2c0.5-5.2,2.8-12.5,4.8-36c2.1-24.6,2.1-31.6,2.6-37.8c0.9-10.1,4.5-14.2,8.6-15.6
		c10.3-3.8,7.8,4.1,9.4,3.6c2.1-0.6,11.2-11.7,19.7-15c16.8-6.8,24.6,1.8,26.7,30.3c0.8,11,1.3,26.3,2.9,49.9
		c0.6,9.4,2.8,31.8,3.5,41.2c0.6,8.1-3.6,10-8.7,8.2c-6.3-2.2-12.5-7.5-12.8-15.9c-0.1-15.4,0.6-30.5,0.2-41
		c-1.1-25.7-4.1-35.2-17.8-31.8c-14.4,4-17.6,20.6-18.1,30.7c-0.6,16.7,0.1,28.4-0.1,34.4c-0.2,6.1-0.8,10-10.6,7
		C224.8,157,221.6,152.6,222.2,147.2L222.2,147.2z"/>
	<path class="st1" d="M223.6,146c0.5-5.2,2.7-12.5,4.6-36c2-24.6,2-31.6,2.5-37.8c0.8-10.1,4.4-14.2,8.4-15.7
		c10.2-3.8,7.7,4.1,9.3,3.5c2-0.7,11-11.7,19.4-14.9c16.6-6.7,24.3,1.7,26.4,30c0.8,10.9,1.3,26.1,2.9,49.5
		c0.6,9.3,2.8,31.5,3.5,40.8c0.6,8-3.5,9.8-8.6,8.1c-6.2-2.2-12.3-7.3-12.6-15.6c-0.1-15.3,0.6-30.2,0.1-40.7
		c-1.1-25.5-4.1-34.9-17.6-31.5c-14.2,4-17.4,20.6-17.7,30.7c-0.6,16.6,0.1,28.4-0.1,34.3c-0.2,6.1-0.8,10-10.4,7.2
		C226.3,155.7,223.1,151.3,223.6,146L223.6,146z"/>
</g>
<g>
	<path class="st0" d="M448.9,121c2.1-16.7,7.9-28.2,14.8-37.8c6.9-9.3,14.9-16.6,22.7-19.1c8.1-2.9,12.4-0.2,15.1,3.1
		c1.6,1.8,2.3,1.6,2.7-1.5c0.7-4.3,4.6-9.3,8.2-10.4c5.8-1.7,8.6,1.8,9.8,19.3c0.9,13.7,0.6,23.2,2.6,55c1.7,27.5,3.8,41,4.3,49.8
		c1,15.8-2.4,20.1-9.3,17.5c-6.1-2.3-11.6-8.8-12.8-15.2c-0.9-3.8-2.3-4.4-4.3-2.1c-4.8,5.8-15.2,5.3-22.6,2.4
		C459.5,173.7,444.7,152.4,448.9,121L448.9,121z M506.8,112.4c-0.6-15-3.4-34.4-20.5-28.9c-16.2,5.2-20,21.6-20.8,33.2
		c-1.1,14.1,8.9,22.9,21.3,23.2C503.3,140.5,507.3,125.3,506.8,112.4z"/>
	<path class="st0" d="M450.4,120c4.5-32,21.8-50.9,36.9-57.3c8-2.9,12.2-0.2,14.9,3c1.6,1.8,2.2,1.6,2.7-1.5
		c0.6-4.3,4.5-9.2,8.1-10.3c5.7-1.8,8.5,1.8,9.7,19.1c0.9,13.6,0.6,23,2.6,54.5c1.8,27.2,3.8,40.6,4.3,49.3
		c1,15.6-2.4,19.8-9.2,17.3c-6-2.3-11.4-8.6-12.6-14.9c-0.8-3.8-2.3-4.4-4.2-2c-4.7,5.9-15,5.6-22.3,2.9
		C461,172.3,446.3,151.2,450.4,120L450.4,120z M507.4,110.4c-0.6-14.9-3.4-34.1-20.3-28.6c-16,5.2-19.7,21.8-20.5,33.3
		c-1,14.1,8.8,22.6,21,22.8C504,138.3,507.9,123.3,507.4,110.4L507.4,110.4z"/>
	<path class="st0" d="M451.8,118.9c4.3-32.2,21.3-51.5,36.2-57.7c7.9-2.9,12.1-0.2,14.7,3c1.6,1.7,2.2,1.6,2.7-1.5
		c0.6-4.2,4.4-9.1,8-10.2c5.6-1.8,8.4,1.7,9.6,19c1,13.5,0.6,22.9,2.7,54.1c1.8,26.9,3.8,40.2,4.3,48.8c1,15.5-2.3,19.6-9,17.2
		c-5.9-2.2-11.3-8.4-12.4-14.6c-0.8-3.7-2.3-4.3-4.1-1.9c-4.6,5.9-14.8,5.9-21.9,3.4C462.4,170.9,447.9,150,451.8,118.9L451.8,118.9
		z M508,108.5c-0.6-14.8-3.4-33.8-20.1-28.3c-15.8,5.2-19.4,21.9-20.1,33.4c-0.9,14.1,8.7,22.4,20.8,22.4
		C504.7,136.2,508.6,121.3,508,108.5z"/>
	<path class="st0" d="M453.2,117.8c4.1-32.4,20.9-52,35.6-58.1c7.8-2.8,11.9-0.2,14.6,2.9c1.6,1.7,2.2,1.6,2.6-1.5
		c0.6-4.2,4.3-9,7.9-10.2c5.5-1.8,8.3,1.6,9.5,18.8c1,13.4,0.6,22.7,2.7,53.6c1.8,26.7,3.8,39.8,4.3,48.3c1.1,15.3-2.3,19.4-8.8,17
		c-5.9-2.1-11.1-8.2-12.3-14.4c-0.8-3.7-2.3-4.3-4.1-1.8c-4.6,5.9-14.5,6.2-21.6,3.9C463.8,169.5,449.5,148.8,453.2,117.8
		L453.2,117.8z M508.6,106.7c-0.6-14.6-3.5-33.5-19.8-28c-15.6,5.2-19.1,22-19.8,33.5c-0.9,14.1,8.7,22.2,20.5,22
		C505.4,134,509.2,119.3,508.6,106.7L508.6,106.7z"/>
	<path class="st0" d="M454.6,116.7c4-32.7,20.5-52.5,35-58.3c7.7-2.8,11.8-0.3,14.4,2.9c1.6,1.7,2.1,1.6,2.6-1.5
		c0.6-4.2,4.3-9,7.7-10.1c5.5-1.8,8.2,1.5,9.4,18.6c1,13.3,0.7,22.6,2.7,53.2c1.8,26.4,3.8,39.4,4.3,47.9
		c1.1,15.1-2.2,19.1-8.7,16.8c-5.8-2-11-8-12.1-14.1c-0.8-3.7-2.2-4.2-4-1.7c-4.5,6-14.3,6.4-21.3,4.3
		C465.2,168,451,147.7,454.6,116.7L454.6,116.7z M509.2,104.8c-0.6-14.5-3.5-33.2-19.6-27.8c-15.4,5.2-18.8,22-19.5,33.5
		c-0.8,14.1,8.6,21.9,20.3,21.6C506.1,131.9,509.8,117.3,509.2,104.8z"/>
	<path class="st0" d="M456,115.5c3.8-32.9,20.1-52.9,34.4-58.6c7.6-2.8,11.7-0.3,14.2,2.8c1.6,1.7,2.1,1.5,2.5-1.5
		c0.6-4.1,4.2-8.9,7.6-10.1c5.4-1.9,8.1,1.5,9.3,18.4c1,13.2,0.7,22.4,2.8,52.8c1.8,26.2,3.8,39,4.3,47.4c1.1,15-2.1,18.9-8.5,16.7
		c-5.7-2-10.8-7.8-11.9-13.9c-0.8-3.6-2.2-4.1-4-1.7c-4.4,6-14.1,6.6-20.9,4.7C466.6,166.5,452.5,146.4,456,115.5L456,115.5z
		 M509.8,102.9c-0.6-14.4-3.5-33-19.4-27.5c-15.2,5.2-18.5,22-19.1,33.5c-0.8,14.1,8.5,21.7,20.1,21.3
		C506.8,129.8,510.4,115.3,509.8,102.9z"/>
	<path class="st0" d="M457.3,114.2c3.6-33.1,19.7-53.2,33.8-58.8c7.5-2.8,11.5-0.3,14,2.8c1.5,1.7,2.1,1.5,2.5-1.5
		c0.6-4.1,4.1-8.8,7.5-10.1c5.3-1.9,8,1.4,9.2,18.2c1,13.1,0.7,22.3,2.8,52.4c1.8,26,3.7,38.7,4.3,46.9c1.1,14.8-2.1,18.7-8.4,16.5
		c-5.6-1.9-10.7-7.6-11.8-13.6c-0.8-3.6-2.2-4.1-3.9-1.6c-4.3,6-13.9,6.8-20.6,5.1C467.9,164.9,454,145.1,457.3,114.2L457.3,114.2z
		 M510.4,101.1c-0.7-14.3-3.5-32.7-19.2-27.2c-15,5.2-18.3,22-18.8,33.5c-0.8,14,8.5,21.5,19.8,20.9
		C507.4,127.7,511,113.4,510.4,101.1L510.4,101.1z"/>
	<path class="st2" d="M458.6,112.9c3.5-33.2,19.3-53.4,33.3-58.9c7.4-2.8,11.4-0.3,13.9,2.8c1.5,1.6,2.1,1.5,2.5-1.5
		c0.6-4,4.1-8.8,7.4-10c5.3-2,7.9,1.3,9.1,18c1,13.1,0.7,22.2,2.8,52c1.8,25.7,3.7,38.3,4.3,46.5c1.1,14.7-2,18.4-8.2,16.3
		c-5.5-1.9-10.5-7.5-11.6-13.4c-0.8-3.6-2.1-4-3.9-1.6c-4.3,6-13.6,7-20.3,5.4C469.2,163.3,455.4,143.8,458.6,112.9L458.6,112.9z
		 M511,99.2c-0.7-14.1-3.5-32.4-19-27c-14.8,5.2-18,22-18.5,33.5c-0.7,14,8.4,21.2,19.6,20.6C508.1,125.6,511.6,111.5,511,99.2
		L511,99.2z"/>
</g>
<g>
	<path class="st0" d="M508.5,163.7c0.5-5.3,3.1-12.5,5.2-35.7c2.3-24.2,2.2-31,2.8-37c0.9-9.7,5-12.2,9.7-12.9
		c11.8-2.1,8.9,5.1,10.7,4.9c2.3-0.2,12.8-11.6,22.5-15.3c19.2-7.2,27.8,5.3,29.6,35.2c0.6,11.6,0.8,27.8,2.2,53
		c0.5,10,2.5,34,3,44.1c0.5,8.7-4.2,10.4-9.8,7.8c-6.9-3.2-13.6-10-13.8-18.7c0.1-16.1,1.2-31.8,0.9-43.1
		c-0.8-27.4-4-37.8-19.3-35.2c-16.2,3-19.9,18.4-20.4,28.5c-0.8,16.5-0.1,28.3-0.3,34.2c-0.3,6-0.9,9.6-11.6,4.6
		C511.4,174.2,508,169.2,508.5,163.7L508.5,163.7z M530.2,66.2c0.5-8.4,6.1-17.8,16.2-22.4c5-2.2,9.4,1.7,14.8-0.6
		c4.3-1.8,6.3-5.1,8-7.6c5-7.7,9.5-1.9,9.7,2.5c0.6,10.5-7.3,20.7-16.1,23.7c-4.9,1.6-12.7-1-15.1,0c-4.8,2.1-6.1,7.8-11,9.3
		C532,72.5,530,69.3,530.2,66.2L530.2,66.2z"/>
	<path class="st0" d="M510.2,162.6c0.5-5.2,3-12.4,5.1-35.5c2.2-24.2,2.1-31,2.6-37c0.9-9.7,4.9-12.4,9.6-13.2
		c11.7-2.3,8.8,5,10.6,4.7c2.3-0.3,12.6-11.7,22.2-15.3c19-7.2,27.5,5.3,29.2,34.9c0.6,11.5,0.9,27.6,2.2,52.5
		c0.5,9.9,2.5,33.7,3,43.7c0.5,8.6-4.1,10.3-9.6,7.8c-6.8-3.1-13.4-9.7-13.6-18.4c0.1-16,1.1-31.6,0.8-42.8
		c-0.8-27.1-3.9-37.6-19.1-34.8c-16,3.1-19.6,18.7-20.1,28.8c-0.7,16.5,0,28.3-0.3,34.2c-0.2,6-0.9,9.6-11.4,4.8
		C513,173,509.6,168.1,510.2,162.6L510.2,162.6z M531.2,64.8c0.5-8.4,6-17.8,16-22.4c4.9-2.2,9.3,1.7,14.7-0.6
		c4.2-1.8,6.3-5.1,7.9-7.6c4.9-7.6,9.4-1.9,9.6,2.5c0.6,10.4-7.2,20.6-15.8,23.5c-4.8,1.6-12.5-0.9-14.9,0c-4.7,2.1-6,7.8-10.8,9.3
		C533.1,71,531.1,67.9,531.2,64.8L531.2,64.8z"/>
	<path class="st0" d="M511.8,161.4c0.5-5.2,2.9-12.3,4.9-35.4c2.1-24.2,2-31,2.5-37c0.9-9.7,4.8-12.6,9.4-13.5
		c11.5-2.6,8.7,4.7,10.5,4.4c2.3-0.4,12.4-11.8,21.9-15.4c18.7-7.1,27.2,5.3,28.9,34.6c0.6,11.4,0.9,27.3,2.2,52.1
		c0.5,9.8,2.5,33.3,3,43.2c0.5,8.5-4,10.1-9.5,7.7c-6.7-3-13.2-9.4-13.4-18.1c0.1-15.9,1.1-31.4,0.7-42.5
		c-0.8-26.9-3.9-37.3-18.9-34.5c-15.8,3.3-19.3,18.9-19.7,29c-0.7,16.5,0,28.3-0.2,34.2c-0.2,6-0.9,9.7-11.3,5.1
		C514.6,171.8,511.2,166.9,511.8,161.4L511.8,161.4z M532.3,63.3c0.5-8.4,5.9-17.8,15.7-22.4c4.8-2.2,9.2,1.7,14.5-0.6
		c4.2-1.8,6.2-5,7.8-7.5c4.8-7.5,9.2-1.9,9.5,2.4c0.6,10.3-7.1,20.4-15.6,23.4c-4.8,1.6-12.4-0.9-14.7,0c-4.7,2.1-5.9,7.8-10.7,9.3
		C534.2,69.6,532.2,66.5,532.3,63.3L532.3,63.3z"/>
	<path class="st0" d="M513.3,160.3c0.5-5.2,2.8-12.3,4.7-35.4c2-24.2,1.9-31,2.4-37.1c0.8-9.8,4.7-12.8,9.3-13.8
		c11.4-2.8,8.6,4.6,10.4,4.2c2.2-0.4,12.3-11.8,21.6-15.4c18.5-7,26.8,5.2,28.6,34.4c0.7,11.4,0.9,27.1,2.2,51.6
		c0.5,9.7,2.5,33,3,42.8c0.5,8.4-4,10-9.3,7.7c-6.6-2.9-13-9.1-13.2-17.7c0.1-15.8,1-31.2,0.7-42.2c-0.8-26.7-3.9-37-18.7-34.1
		c-15.6,3.4-19,19.2-19.4,29.3c-0.6,16.5,0.1,28.3-0.1,34.2c-0.2,6-0.8,9.8-11.1,5.4C516.2,170.6,512.8,165.7,513.3,160.3
		L513.3,160.3z M533.4,61.9c0.4-8.4,5.8-17.8,15.5-22.3c4.8-2.2,9.1,1.6,14.3-0.6c4.1-1.7,6.1-5,7.7-7.4c4.8-7.5,9.1-1.9,9.4,2.4
		c0.6,10.3-7,20.3-15.4,23.2c-4.7,1.6-12.3-0.9-14.5,0c-4.6,2.1-5.9,7.7-10.5,9.3C535.2,68.1,533.2,65.1,533.4,61.9z"/>
	<path class="st0" d="M514.9,159.1c0.5-5.2,2.8-12.3,4.6-35.4c1.9-24.2,1.8-31,2.3-37.1c0.8-9.8,4.7-12.9,9.1-14
		c11.2-3,8.5,4.5,10.3,4.1c2.2-0.4,12.1-11.9,21.3-15.4c18.3-7,26.5,5.2,28.3,34.1c0.7,11.3,0.9,26.9,2.2,51.1
		c0.5,9.6,2.5,32.7,3,42.3c0.5,8.3-3.9,9.9-9.2,7.6c-6.5-2.9-12.9-8.9-13.1-17.4c0.1-15.6,0.9-31,0.6-41.9
		c-0.9-26.5-3.9-36.7-18.5-33.8c-15.4,3.5-18.7,19.4-19.1,29.4c-0.6,16.5,0.1,28.3,0,34.2c-0.2,6-0.8,9.8-10.9,5.6
		C517.7,169.3,514.4,164.5,514.9,159.1L514.9,159.1z M534.4,60.5c0.4-8.4,5.7-17.8,15.3-22.3c4.7-2.2,9,1.6,14.2-0.6
		c4.1-1.7,6-4.9,7.6-7.4c4.7-7.4,9-2,9.3,2.4c0.6,10.2-6.9,20.2-15.2,23c-4.6,1.6-12.1-0.9-14.4,0.1c-4.5,2.1-5.8,7.7-10.4,9.3
		C536.2,66.6,534.3,63.6,534.4,60.5L534.4,60.5z"/>
	<path class="st0" d="M516.4,157.9c0.4-5.1,2.7-12.3,4.4-35.4c1.8-24.2,1.7-31,2.1-37.1c0.8-9.8,4.6-13.1,9-14.2
		c11.1-3.1,8.4,4.3,10.2,3.9c2.2-0.5,11.9-11.9,21-15.4c18-6.8,26.2,5.2,27.9,33.9c0.7,11.2,0.9,26.7,2.3,50.7
		c0.5,9.5,2.5,32.3,3,41.9c0.5,8.2-3.8,9.7-9.1,7.5c-6.4-2.8-12.7-8.6-12.9-17.2c0-15.5,0.9-30.8,0.5-41.6
		c-0.9-26.2-3.9-36.5-18.3-33.5c-15.2,3.6-18.4,19.5-18.8,29.6c-0.6,16.5,0.2,28.3,0,34.2c-0.2,6-0.8,9.9-10.7,5.9
		C519.2,168.1,515.9,163.3,516.4,157.9L516.4,157.9z M535.5,59.1c0.4-8.4,5.6-17.8,15.1-22.2c4.7-2.1,8.9,1.6,14-0.6
		c4-1.7,5.9-4.9,7.5-7.3c4.7-7.4,8.9-2,9.2,2.3c0.6,10.1-6.8,20-15,22.9c-4.6,1.5-12-0.9-14.2,0.1c-4.5,2.1-5.7,7.7-10.3,9.3
		C537.2,65.1,535.3,62.2,535.5,59.1L535.5,59.1z"/>
	<path class="st0" d="M517.9,156.7c0.4-5.1,2.6-12.3,4.3-35.4c1.7-24.2,1.6-31,2-37.1c0.7-9.8,4.5-13.2,8.8-14.4
		c11-3.3,8.3,4.2,10,3.7c2.2-0.5,11.8-11.9,20.8-15.3c17.8-6.8,25.9,5.1,27.6,33.6c0.7,11.1,0.9,26.4,2.3,50.2
		c0.5,9.4,2.5,32,3,41.5c0.5,8.1-3.8,9.6-8.9,7.4c-6.3-2.7-12.5-8.5-12.7-16.9c0-15.4,0.8-30.5,0.5-41.2c-0.9-26-3.9-36.2-18.1-33.2
		c-15,3.6-18.2,19.7-18.5,29.7c-0.5,16.5,0.3,28.3,0.1,34.2c-0.2,6.1-0.7,9.9-10.6,6.2C520.7,166.8,517.4,162.1,517.9,156.7
		L517.9,156.7z M536.5,57.6c0.4-8.4,5.5-17.7,14.9-22.1c4.6-2.1,8.8,1.6,13.8-0.6c4-1.7,5.9-4.9,7.4-7.3c4.6-7.4,8.8-2,9.1,2.3
		c0.6,10.1-6.7,19.9-14.8,22.7c-4.5,1.5-11.8-0.9-14,0.1c-4.4,2.1-5.6,7.6-10.1,9.3C538.3,63.6,536.3,60.7,536.5,57.6L536.5,57.6z"
		/>
	<path class="st2" d="M519.4,155.4c0.4-5.1,2.5-12.3,4.1-35.5c1.6-24.2,1.5-31,1.9-37.1c0.7-9.9,4.4-13.3,8.7-14.6
		c10.8-3.4,8.2,4.1,9.9,3.6c2.1-0.5,11.6-11.9,20.5-15.3c17.6-6.8,25.6,5.1,27.3,33.3c0.7,11,0.9,26.2,2.3,49.8
		c0.5,9.3,2.5,31.7,3,41c0.5,8-3.7,9.5-8.8,7.3c-6.2-2.7-12.3-8.3-12.6-16.6c0-15.3,0.8-30.3,0.4-40.9c-0.9-25.8-3.9-35.9-17.9-32.8
		c-14.8,3.7-17.9,19.8-18.2,29.8c-0.5,16.5,0.3,28.2,0.2,34.2c-0.2,6.1-0.7,9.9-10.4,6.5C522.1,165.5,518.9,160.8,519.4,155.4
		L519.4,155.4z M537.5,56.2c0.4-8.3,5.4-17.7,14.6-22c4.6-2.1,8.7,1.5,13.7-0.6c3.9-1.7,5.8-4.8,7.3-7.2c4.5-7.3,8.7-2.1,9,2.2
		c0.6,10-6.6,19.8-14.6,22.6c-4.5,1.5-11.7-0.9-13.9,0.1c-4.4,2-5.5,7.6-10,9.3C539.2,62.1,537.3,59.3,537.5,56.2L537.5,56.2z"/>
</g>
<g>
	<path class="st0" d="M639,142.3c0.6-5.5,3.8-18.4,12.6-17.3c9.4,0.7-1,17.3,19.7,18.9c8.9,0.4,12.8-3.6,12.7-12.2
		c-0.5-24-30.4-19.2-28.7-41.3c0.9-12,10.1-21.3,21.8-26.1c7.9-3.2,20.9-5,21.5,7.6c0.2,4.8-1.6,9.6-6.5,10.8
		c-5.3,1.4-7.8-3-12.7-1.4c-3.6,1.2-5.9,4.8-6,9.5c-0.1,8.1,8.8,8.5,18.4,15.4c9.6,6.5,19.8,19.6,21.3,44
		c2.1,30.7-12.9,48.1-36.6,37.5C653.3,177.5,636.9,159,639,142.3L639,142.3z"/>
	<path class="st0" d="M640.5,141.3c0.6-5.4,3.7-18.5,12.4-17.7c9.3,0.5-1,17.3,19.5,18.4c8.7,0.3,12.6-3.8,12.5-12.3
		c-0.5-24-30-18.7-28.4-40.7c0.9-12,10-21.4,21.5-26.1c7.8-3.2,20.6-4.9,21.3,7.5c0.2,4.7-1.6,9.5-6.4,10.7c-5.3,1.3-7.7-3-12.5-1.3
		c-3.6,1.2-5.8,4.7-5.9,9.4c-0.1,8.1,8.7,8.4,18.2,15.2c9.4,6.4,19.6,19.4,21.1,43.6c2.1,30.4-12.6,47.5-36,37.7
		C654.7,176.2,638.5,157.9,640.5,141.3L640.5,141.3z"/>
	<path class="st0" d="M642,140.3c0.6-5.4,3.6-18.6,12.2-18.1c9.1,0.2-0.9,17.2,19.2,18c8.6,0.1,12.4-4,12.3-12.4
		c-0.6-23.9-29.6-18.3-28.1-40.2c0.8-12.1,9.8-21.5,21.2-26.1c7.7-3.1,20.3-4.9,21,7.5c0.2,4.7-1.5,9.4-6.3,10.6
		c-5.2,1.3-7.6-2.9-12.3-1.3c-3.5,1.2-5.7,4.7-5.8,9.4c-0.1,8,8.6,8.3,18,15c9.3,6.3,19.3,19.2,20.9,43.2c2.1,30-12.4,47-35.4,37.9
		C656.1,174.8,640.1,156.7,642,140.3z"/>
	<path class="st0" d="M643.5,139.2c0.5-5.4,3.5-18.7,11.9-18.4c9,0-0.8,17.2,19,17.5c8.5,0,12.2-4.1,12.1-12.5
		c-0.6-23.8-29.3-17.9-27.8-39.7c0.8-12.1,9.6-21.5,20.8-26.1c7.6-3.1,20.1-4.9,20.8,7.4c0.2,4.7-1.5,9.4-6.2,10.5
		c-5.1,1.3-7.6-2.9-12.2-1.3c-3.5,1.2-5.6,4.7-5.7,9.3c0,8,8.6,8.2,17.8,14.9c9.2,6.3,19.1,19.1,20.6,42.8
		c2.1,29.7-12.1,46.4-34.8,38.1C657.4,173.4,641.6,155.5,643.5,139.2L643.5,139.2z"/>
	<path class="st0" d="M644.9,138.1c0.5-5.3,3.4-18.7,11.7-18.8c8.9-0.2-0.8,17.1,18.8,17.1c8.4-0.2,12-4.2,11.9-12.6
		c-0.6-23.7-28.9-17.5-27.5-39.2c0.7-12.1,9.4-21.5,20.5-26.1c7.5-3.1,19.8-4.9,20.5,7.3c0.2,4.6-1.5,9.3-6.1,10.4
		c-5,1.3-7.5-2.9-12-1.3c-3.4,1.2-5.6,4.7-5.6,9.3c0,7.9,8.5,8.1,17.6,14.7c9.1,6.2,18.9,18.9,20.4,42.5
		c2.1,29.4-11.9,45.8-34.2,38.2C658.7,171.9,643.1,154.3,644.9,138.1L644.9,138.1z"/>
	<path class="st0" d="M646.3,136.9c0.5-5.3,3.3-18.8,11.5-19.1c8.8-0.4-0.7,17.1,18.6,16.7c8.3-0.3,11.9-4.4,11.7-12.6
		c-0.7-23.6-28.6-17.1-27.3-38.7c0.7-12.1,9.3-21.5,20.2-26c7.4-3.1,19.6-4.9,20.3,7.2c0.2,4.6-1.4,9.2-6,10.4
		c-5,1.3-7.4-2.8-11.9-1.2c-3.4,1.2-5.5,4.7-5.5,9.2c0,7.9,8.4,8,17.4,14.5c9,6.2,18.6,18.8,20.2,42.1c2.1,29.1-11.6,45.2-33.7,38.2
		C660,170.4,644.6,153,646.3,136.9L646.3,136.9z"/>
	<path class="st0" d="M647.7,135.7c0.5-5.3,3.2-19,11.3-19.4c8.7-0.6-0.7,17,18.4,16.3c8.1-0.4,11.7-4.5,11.5-12.7
		c-0.7-23.5-28.2-16.8-27-38.3c0.7-12.1,9.1-21.5,19.9-26c7.3-3,19.3-4.9,20,7.1c0.2,4.6-1.4,9.2-5.9,10.3
		c-4.9,1.3-7.3-2.8-11.7-1.2c-3.3,1.2-5.4,4.6-5.4,9.2c0,7.8,8.3,7.9,17.2,14.4c8.9,6.1,18.4,18.7,20,41.8
		c2.1,28.9-11.4,44.6-33.1,38.2C661.3,168.8,646,151.8,647.7,135.7L647.7,135.7z"/>
	<path class="st2" d="M649,134.4c0.4-5.3,3.1-19.1,11.1-19.7c8.5-0.8-0.6,17,18.1,16c8-0.5,11.5-4.5,11.3-12.7
		c-0.7-23.3-27.9-16.5-26.7-37.8c0.6-12.1,8.9-21.4,19.6-25.9c7.2-3,19.1-4.9,19.8,7c0.2,4.5-1.4,9.1-5.9,10.2
		c-4.9,1.3-7.2-2.8-11.6-1.2c-3.3,1.2-5.3,4.6-5.3,9.1c0,7.7,8.2,7.8,17,14.3c8.8,6,18.2,18.5,19.7,41.4c2.1,28.6-11.2,44-32.6,38.2
		C662.5,167.2,647.4,150.5,649,134.4L649,134.4z"/>
</g>
<g>
	<path class="st0" d="M585.8,125.1c1.7-13.9,6.4-24.9,13.1-35.2c6.8-10.1,15.5-19.6,26.6-23.5c19.8-8.3,34.5,9.9,38.3,62.1
		c3.3,45.4-6.4,74.9-37.4,62.3C599.4,179.7,581.2,159,585.8,125.1L585.8,125.1z M645.5,114c-1-23.9-8.1-33.2-20.1-29.3
		c-12.6,4.1-19.9,16.6-21.1,34.2c-1.1,15.8,6.3,24.8,21.7,25.2C639.8,144.5,646.4,134.5,645.5,114L645.5,114z"/>
	<path class="st0" d="M587.3,124.1c1.6-13.8,6.2-25.1,12.8-35.6c6.6-10.2,15.3-19.7,26.2-23.6c19.6-8.3,34.1,9.7,37.9,61.5
		c3.4,45-6.2,74-36.8,62.3C600.8,178.3,582.9,157.8,587.3,124.1L587.3,124.1z M646.2,112.1c-1-23.7-8-32.9-19.9-29
		c-12.4,4.1-19.6,16.7-20.7,34.3c-1,15.8,6.3,24.6,21.4,24.8C640.6,142.3,647,132.5,646.2,112.1L646.2,112.1z"/>
	<path class="st0" d="M588.7,123c1.5-13.8,6.1-25.3,12.5-35.9c6.5-10.3,15-19.8,25.9-23.6c19.3-8.2,33.7,9.6,37.5,60.9
		c3.4,44.6-6.1,73-36.1,62.2C602.2,176.8,584.5,156.6,588.7,123L588.7,123z M646.8,110.2c-1-23.5-8-32.6-19.7-28.7
		c-12.3,4.1-19.3,16.7-20.4,34.3c-0.9,15.8,6.3,24.4,21.2,24.3C641.3,140.2,647.7,130.4,646.8,110.2L646.8,110.2z"/>
	<path class="st0" d="M590.1,121.9c3.3-26.2,16.7-50.8,37.8-59.9c19.1-8.1,33.3,9.4,37.1,60.3c3.4,44.2-5.9,72.1-35.5,62.1
		C603.5,175.3,586.1,155.4,590.1,121.9z M647.4,108.3c-1.1-23.3-7.9-32.3-19.5-28.4c-12.1,4.1-19,16.8-20,34.3
		c-0.9,15.8,6.2,24.2,21,24C642,138,648.3,128.3,647.4,108.3z"/>
	<path class="st0" d="M591.5,120.8c3.2-26.3,16.3-51.3,37.1-60.2c18.8-8.1,32.9,9.3,36.7,59.8c3.4,43.9-5.7,71.2-34.9,61.9
		C604.9,173.8,587.6,154.2,591.5,120.8L591.5,120.8z M648,106.4c-1.1-23.1-7.9-32-19.2-28.2c-11.9,4.1-18.7,16.8-19.7,34.3
		c-0.8,15.8,6.2,24,20.7,23.6C642.7,135.9,648.9,126.3,648,106.4z"/>
	<path class="st0" d="M592.9,119.6c3.1-26.4,16-51.7,36.5-60.4c18.6-8,32.5,9.1,36.3,59.2c3.4,43.5-5.5,70.3-34.3,61.7
		C606.2,172.2,589.1,153,592.9,119.6L592.9,119.6z M648.5,104.6c-1.1-22.9-7.8-31.7-19.1-27.9c-11.8,4.1-18.5,16.8-19.4,34.3
		c-0.8,15.8,6.2,23.8,20.5,23.2C643.4,133.8,649.5,124.3,648.5,104.6z"/>
	<path class="st0" d="M594.2,118.3c2.9-26.6,15.6-52.1,35.9-60.6c18.4-8,32.1,8.9,35.9,58.7c3.4,43.2-5.4,69.4-33.7,61.5
		C607.5,170.6,590.6,151.7,594.2,118.3L594.2,118.3z M649.1,102.8c-1.1-22.7-7.8-31.5-18.8-27.6c-11.6,4-18.2,16.7-19,34.2
		c-0.7,15.7,6.2,23.6,20.3,22.9C644.1,131.7,650,122.3,649.1,102.8L649.1,102.8z"/>
	<path class="st2" d="M595.6,117.1c2.8-26.7,15.3-52.4,35.3-60.7c18.1-7.9,31.7,8.8,35.5,58.1c3.4,42.9-5.2,68.5-33.2,61.3
		C608.8,169,592.1,150.4,595.6,117.1L595.6,117.1z M649.6,101c-1.1-22.4-7.7-31.2-18.7-27.4c-11.5,4-17.9,16.7-18.7,34.1
		c-0.7,15.7,6.1,23.4,20,22.6C644.8,129.7,650.6,120.3,649.6,101L649.6,101z"/>
</g>
<g>
	<path class="st0" d="M765.1,117c2.1-16.7,7.9-28.2,14.8-37.8c6.9-9.3,14.9-16.6,22.7-19.1c8.1-2.9,12.4-0.2,15.1,3.1
		c1.6,1.8,2.3,1.6,2.7-1.5c0.7-4.3,4.6-9.3,8.2-10.4c5.8-1.7,8.6,1.8,9.8,19.3c0.9,13.7,0.6,23.2,2.6,55c1.7,27.5,3.8,41,4.3,49.8
		c1,15.8-2.4,20.1-9.3,17.5c-6.1-2.3-11.6-8.8-12.8-15.2c-0.9-3.8-2.3-4.4-4.3-2.1c-4.8,5.8-15.2,5.3-22.6,2.4
		C775.7,169.7,760.8,148.4,765.1,117L765.1,117z M822.9,108.4c-0.6-15-3.4-34.4-20.5-28.9c-16.2,5.2-20,21.6-20.8,33.2
		c-1.1,14.1,8.9,22.9,21.3,23.2C819.4,136.5,823.4,121.3,822.9,108.4z"/>
	<path class="st0" d="M766.5,116c4.5-32,21.8-50.9,36.9-57.3c8-2.9,12.2-0.2,14.9,3c1.6,1.8,2.2,1.6,2.7-1.5
		c0.6-4.3,4.5-9.2,8.1-10.3c5.7-1.8,8.5,1.8,9.7,19.1c0.9,13.6,0.6,23,2.6,54.5c1.8,27.2,3.8,40.6,4.3,49.3
		c1,15.6-2.4,19.8-9.2,17.3c-6-2.3-11.4-8.6-12.6-14.9c-0.8-3.8-2.3-4.4-4.2-2c-4.7,5.9-15,5.6-22.3,2.9
		C777.1,168.3,762.4,147.2,766.5,116L766.5,116z M823.5,106.5c-0.6-14.9-3.4-34.1-20.3-28.6c-16,5.2-19.7,21.8-20.5,33.3
		c-1,14.1,8.8,22.6,21,22.8C820.1,134.3,824.1,119.3,823.5,106.5L823.5,106.5z"/>
	<path class="st0" d="M767.9,114.9c4.3-32.2,21.3-51.5,36.2-57.7c7.9-2.9,12.1-0.2,14.7,3c1.6,1.7,2.2,1.6,2.7-1.5
		c0.6-4.2,4.4-9.1,8-10.2c5.6-1.8,8.4,1.7,9.6,19c1,13.5,0.6,22.9,2.7,54.1c1.8,26.9,3.8,40.2,4.3,48.8c1,15.5-2.3,19.6-9,17.2
		c-5.9-2.2-11.3-8.4-12.4-14.6c-0.8-3.7-2.3-4.3-4.1-1.9c-4.6,5.9-14.8,5.9-21.9,3.4C778.6,166.9,764,146.1,767.9,114.9L767.9,114.9
		z M824.2,104.5c-0.6-14.8-3.4-33.8-20.1-28.3c-15.8,5.2-19.4,21.9-20.1,33.4c-0.9,14.1,8.7,22.4,20.8,22.4
		C820.8,132.2,824.7,117.3,824.2,104.5L824.2,104.5z"/>
	<path class="st0" d="M769.4,113.8c4.1-32.4,20.9-52,35.6-58.1c7.8-2.8,11.9-0.2,14.6,2.9c1.6,1.7,2.2,1.6,2.6-1.5
		c0.6-4.2,4.3-9,7.9-10.2c5.5-1.8,8.3,1.6,9.5,18.8c1,13.4,0.6,22.7,2.7,53.6c1.8,26.7,3.8,39.8,4.3,48.3c1,15.3-2.3,19.4-8.8,17
		c-5.9-2.1-11.1-8.2-12.3-14.4c-0.8-3.7-2.3-4.3-4.1-1.8c-4.6,5.9-14.5,6.2-21.6,3.9C780,165.5,765.6,144.9,769.4,113.8L769.4,113.8
		z M824.8,102.7c-0.6-14.6-3.4-33.5-19.8-28c-15.6,5.2-19.1,22-19.8,33.5c-0.9,14.1,8.7,22.2,20.5,22
		C821.5,130,825.3,115.3,824.8,102.7L824.8,102.7z"/>
	<path class="st0" d="M770.7,112.7c4-32.7,20.5-52.5,35-58.3c7.7-2.8,11.8-0.3,14.4,2.9c1.6,1.7,2.1,1.6,2.6-1.5
		c0.6-4.2,4.3-9,7.7-10.1c5.5-1.8,8.2,1.5,9.4,18.6c1,13.3,0.7,22.6,2.7,53.2c1.8,26.4,3.8,39.4,4.3,47.9
		c1.1,15.1-2.2,19.1-8.7,16.8c-5.8-2-11-8-12.1-14.1c-0.8-3.7-2.2-4.2-4-1.7c-4.5,6-14.3,6.4-21.3,4.3
		C781.4,164,767.1,143.7,770.7,112.7L770.7,112.7z M825.4,100.8c-0.6-14.5-3.5-33.2-19.6-27.8c-15.4,5.2-18.8,22-19.5,33.5
		c-0.8,14.1,8.6,21.9,20.3,21.6C822.2,127.9,825.9,113.3,825.4,100.8L825.4,100.8z"/>
	<path class="st0" d="M772.1,111.5c3.8-32.9,20.1-52.9,34.4-58.6c7.6-2.8,11.7-0.3,14.2,2.8c1.6,1.7,2.1,1.5,2.5-1.5
		c0.6-4.1,4.2-8.9,7.6-10.1c5.4-1.9,8.1,1.5,9.3,18.4c1,13.2,0.7,22.4,2.8,52.8c1.8,26.2,3.7,39,4.3,47.4c1.1,15-2.1,18.9-8.5,16.7
		c-5.7-2-10.8-7.8-11.9-13.9c-0.8-3.6-2.2-4.1-4-1.7c-4.4,6-14.1,6.6-20.9,4.7C782.7,162.5,768.7,142.4,772.1,111.5L772.1,111.5z
		 M826,98.9c-0.6-14.4-3.5-33-19.4-27.5c-15.2,5.2-18.5,22-19.1,33.5c-0.8,14.1,8.5,21.7,20.1,21.3
		C822.9,125.8,826.5,111.4,826,98.9L826,98.9z"/>
	<path class="st0" d="M773.4,110.2c3.6-33.1,19.7-53.2,33.8-58.8c7.5-2.8,11.5-0.3,14,2.8c1.5,1.7,2.1,1.5,2.5-1.5
		c0.6-4.1,4.1-8.8,7.5-10.1c5.3-1.9,8,1.4,9.2,18.2c1,13.1,0.7,22.3,2.8,52.4c1.8,26,3.7,38.7,4.3,46.9c1.1,14.8-2.1,18.7-8.4,16.5
		c-5.6-1.9-10.7-7.6-11.8-13.6c-0.8-3.6-2.2-4.1-3.9-1.6c-4.3,6-13.9,6.8-20.6,5.1C784,160.9,770.1,141.2,773.4,110.2L773.4,110.2z
		 M826.6,97.1c-0.7-14.3-3.5-32.7-19.2-27.2c-15,5.2-18.3,22-18.8,33.5c-0.8,14,8.5,21.5,19.8,20.9
		C823.6,123.7,827.1,109.4,826.6,97.1L826.6,97.1z"/>
	<path class="st2" d="M774.7,109c3.5-33.2,19.3-53.4,33.3-58.9c7.4-2.8,11.4-0.3,13.9,2.8c1.5,1.6,2.1,1.5,2.5-1.5
		c0.6-4,4.1-8.8,7.4-10c5.3-2,7.9,1.3,9.1,18c1,13.1,0.7,22.2,2.8,52c1.8,25.7,3.7,38.3,4.3,46.5c1.1,14.7-2,18.4-8.2,16.3
		c-5.5-1.9-10.5-7.5-11.6-13.4c-0.8-3.6-2.1-4-3.9-1.6c-4.3,6-13.6,7-20.3,5.4C785.3,159.4,771.6,139.9,774.7,109L774.7,109z
		 M827.1,95.3c-0.7-14.1-3.5-32.4-19-27c-14.8,5.2-18,22-18.5,33.5c-0.7,14,8.4,21.2,19.6,20.6C824.2,121.6,827.7,107.5,827.1,95.3
		L827.1,95.3z"/>
</g>
<g>
	<path class="st0" d="M703.9,115.2c4.4-34,19.9-49.7,36.9-57.3c19.6-8.8,28.2,9.1,29,20.2c0.6,9.4-0.8,17.3-8.5,17.5
		c-5.6,0.4-7.6-4.8-7.8-11.1c-0.1-3.5-3.4-9.9-12.9-6.7c-14.8,5.3-17.8,22.7-18.4,34.7c-0.6,10.2,3.2,22.6,18.1,23.1
		c20,0.7,18.5-14,26.6-13.2c4.5,0.7,6.7,7.9,7.9,29.4c2.2,33.5-15.6,38.7-36.1,29.5C715.2,170.7,699.6,151.3,703.9,115.2
		L703.9,115.2z"/>
	<path class="st0" d="M705.3,114.2c4.2-34.3,19.5-50.4,36.2-57.8c19.4-8.7,27.9,9,28.7,20c0.6,9.3-0.8,17.1-8.4,17.4
		c-5.5,0.4-7.5-4.7-7.7-11c-0.1-3.5-3.4-9.9-12.7-6.6c-14.7,5.3-17.5,22.8-18.1,34.8c-0.5,10.2,3.2,22.5,17.9,22.7
		c19.7,0.5,18.2-14.1,26.2-13.3c4.4,0.7,6.6,7.9,7.8,29.1c2.2,33.1-15.3,38.3-35.5,29.8C716.6,169.3,701.1,150.1,705.3,114.2
		L705.3,114.2z"/>
	<path class="st0" d="M706.7,113.1c4-34.5,19.1-51,35.6-58.3c19.1-8.6,27.6,8.8,28.3,19.8c0.6,9.2-0.8,17-8.3,17.2
		c-5.4,0.4-7.4-4.7-7.6-10.9c-0.1-3.4-3.3-9.8-12.6-6.5c-14.5,5.3-17.2,22.8-17.8,34.8c-0.5,10.2,3.2,22.3,17.7,22.4
		c19.4,0.2,17.9-14.1,25.8-13.4c4.4,0.7,6.5,7.8,7.8,28.8c2.2,32.7-15,37.9-34.9,30.1C717.9,167.9,702.7,149,706.7,113.1
		L706.7,113.1z"/>
	<path class="st0" d="M708,112.1c3.9-34.8,18.7-51.6,35-58.6c18.9-8.6,27.2,8.7,28,19.6c0.6,9.2-0.7,16.9-8.1,17.1
		c-5.3,0.4-7.3-4.7-7.5-10.8c-0.1-3.4-3.3-9.7-12.4-6.5c-14.3,5.3-17,22.8-17.5,34.8c-0.5,10.2,3.2,22.2,17.5,22
		c19.2,0,17.7-14.1,25.4-13.4c4.3,0.7,6.4,7.8,7.7,28.6c2.2,32.3-14.7,37.5-34.4,30.3C719.3,166.5,704.2,147.8,708,112.1L708,112.1z
		"/>
	<path class="st0" d="M709.4,110.9c3.7-35.1,18.4-52,34.4-58.9c18.6-8.5,26.9,8.5,27.7,19.4c0.6,9.1-0.7,16.8-8,17
		c-5.3,0.3-7.3-4.6-7.5-10.7c-0.1-3.4-3.3-9.6-12.3-6.4c-14.1,5.3-16.7,22.8-17.2,34.8c-0.4,10.2,3.2,22,17.3,21.7
		c18.9-0.2,17.4-14.1,25-13.4c4.2,0.7,6.3,7.7,7.6,28.3c2.2,31.9-14.5,37-33.8,30.5C720.6,165,705.7,146.6,709.4,110.9L709.4,110.9z
		"/>
	<path class="st0" d="M710.7,109.7c3.5-35.3,18-52.4,33.9-59.2C763,42,771.2,58.9,772,69.7c0.6,9.1-0.7,16.7-7.9,16.9
		c-5.2,0.3-7.2-4.6-7.4-10.6c-0.1-3.4-3.2-9.5-12.1-6.3c-13.9,5.3-16.5,22.8-16.9,34.8c-0.4,10.2,3.2,21.9,17.1,21.4
		c18.6-0.3,17.1-14.1,24.6-13.4c4.2,0.7,6.3,7.6,7.5,28.1c2.2,31.6-14.2,36.6-33.3,30.6C721.9,163.5,707.1,145.4,710.7,109.7
		L710.7,109.7z"/>
	<path class="st0" d="M711.9,108.5c3.4-35.5,17.6-52.8,33.3-59.4c18.1-8.4,26.3,8.2,27,19c0.6,9-0.6,16.6-7.8,16.8
		c-5.1,0.3-7.1-4.6-7.3-10.5c-0.1-3.3-3.2-9.5-12-6.3c-13.7,5.2-16.2,22.8-16.6,34.7c-0.4,10.2,3.3,21.7,17,21.1
		c18.4-0.5,16.9-14.1,24.3-13.4c4.1,0.7,6.2,7.6,7.5,27.8c2.2,31.3-13.9,36.1-32.7,30.7C723.1,161.9,708.6,144.2,711.9,108.5
		L711.9,108.5z"/>
	<path class="st2" d="M713.2,107.2c3.2-35.7,17.3-53,32.7-59.5c17.9-8.4,26,8,26.7,18.8c0.6,8.9-0.6,16.5-7.6,16.7
		c-5.1,0.3-7-4.5-7.2-10.4c-0.1-3.3-3.2-9.4-11.8-6.2c-13.5,5.2-15.9,22.7-16.3,34.6c-0.3,10.2,3.3,21.6,16.8,20.8
		c18.1-0.6,16.6-14,23.9-13.4c4.1,0.7,6.1,7.6,7.4,27.6c2.2,30.9-13.7,35.6-32.2,30.7C724.4,160.3,710,142.9,713.2,107.2
		L713.2,107.2z"/>
</g>
<g>
	<path class="st0" d="M136.3,117.2c1.7-13.9,6.4-24.9,13.1-35.2c6.8-10.1,15.5-19.6,26.6-23.5c19.8-8.3,34.5,9.9,38.3,62.1
		c3.3,45.4-6.4,74.9-37.4,62.3C149.9,171.8,131.7,151.1,136.3,117.2L136.3,117.2z M196,106.1c-1-23.9-8.1-33.2-20.1-29.3
		c-12.5,4.2-19.8,16.6-21,34.2c-1.1,15.8,6.3,24.8,21.7,25.2C190.3,136.6,196.9,126.7,196,106.1L196,106.1z"/>
	<path class="st0" d="M137.8,116.2c1.6-13.8,6.2-25.1,12.8-35.6c6.6-10.2,15.3-19.7,26.2-23.6c19.6-8.3,34.1,9.7,37.9,61.5
		c3.4,45-6.2,74-36.8,62.3C151.3,170.4,133.4,149.9,137.8,116.2L137.8,116.2z M196.7,104.2c-1-23.7-8-32.9-19.9-29
		c-12.4,4.1-19.6,16.7-20.7,34.3c-1,15.8,6.3,24.6,21.4,24.8C191.1,134.4,197.5,124.6,196.7,104.2L196.7,104.2z"/>
	<path class="st0" d="M139.2,115.1c1.5-13.8,6.1-25.3,12.5-35.9c6.5-10.3,15-19.8,25.9-23.6c19.3-8.2,33.7,9.6,37.5,60.9
		c3.4,44.6-6.1,73-36.1,62.2C152.7,169,135,148.8,139.2,115.1L139.2,115.1z M197.3,102.3c-1-23.5-8-32.6-19.7-28.7
		c-12.3,4.1-19.3,16.7-20.4,34.3c-0.9,15.8,6.3,24.4,21.2,24.3C191.8,132.3,198.1,122.5,197.3,102.3L197.3,102.3z"/>
	<path class="st0" d="M140.6,114c3.3-26.2,16.7-50.8,37.8-59.9c19.1-8.1,33.3,9.4,37.1,60.3c3.4,44.2-5.9,72.1-35.5,62.1
		C154,167.5,136.6,147.5,140.6,114z M197.9,100.4c-1.1-23.3-7.9-32.3-19.5-28.4c-12.1,4.1-19,16.8-20,34.3c-0.9,15.8,6.2,24.2,21,24
		C192.5,130.2,198.8,120.5,197.9,100.4z"/>
	<path class="st0" d="M142,112.9c3.2-26.3,16.3-51.3,37.1-60.2c18.8-8.1,32.9,9.3,36.7,59.8c3.4,43.9-5.7,71.2-34.9,61.9
		C155.4,165.9,138.1,146.3,142,112.9L142,112.9z M198.4,98.6c-1.1-23.1-7.9-32-19.2-28.2c-11.9,4.1-18.7,16.8-19.7,34.3
		c-0.8,15.8,6.2,24,20.7,23.6C193.2,128.1,199.4,118.4,198.4,98.6z"/>
	<path class="st0" d="M143.4,111.7c3.1-26.4,16-51.7,36.5-60.4c18.6-8,32.5,9.1,36.3,59.2c3.4,43.5-5.5,70.3-34.3,61.7
		C156.7,164.4,139.6,145.1,143.4,111.7L143.4,111.7z M199,96.7c-1.1-22.9-7.8-31.7-19.1-27.9c-11.8,4.1-18.5,16.8-19.4,34.3
		c-0.8,15.8,6.2,23.8,20.5,23.2C193.9,126,200,116.4,199,96.7L199,96.7z"/>
	<path class="st0" d="M144.7,110.5c2.9-26.6,15.6-52.1,35.9-60.6c18.4-8,32.1,8.9,35.9,58.7c3.4,43.2-5.4,69.4-33.7,61.5
		C158,162.8,141.1,143.8,144.7,110.5L144.7,110.5z M199.6,94.9c-1.1-22.7-7.8-31.5-18.8-27.6c-11.6,4-18.2,16.7-19,34.2
		c-0.7,15.7,6.2,23.6,20.3,22.9C194.6,123.9,200.5,114.4,199.6,94.9L199.6,94.9z"/>
	<path class="st1" d="M146,109.2c2.8-26.7,15.3-52.4,35.3-60.7c18.1-7.9,31.7,8.8,35.5,58.1c3.4,42.9-5.2,68.5-33.1,61.3
		C159.3,161.1,142.6,142.6,146,109.2L146,109.2z M200.1,93.1c-1.1-22.4-7.7-31.2-18.7-27.4c-11.5,4-17.9,16.7-18.7,34.1
		c-0.7,15.7,6.1,23.4,20,22.6C195.3,121.8,201.1,112.5,200.1,93.1L200.1,93.1z"/>
</g>
</svg>
